<svg width="946" height="1000" version="1.1" xmlns="http://www.w3.org/2000/svg" desc="Created with imagetracer.js version 1.2.6" ><path fill="rgb(144,123,177)" stroke="rgb(144,123,177)" stroke-width="0" opacity="0.9921568627450981" d="M 406.5 133 L 432.5 133 L 433.5 134 L 444.5 134 L 445.5 135 L 466.5 137 L 496.5 144 L 533.5 157 Q 568.8 171.7 599.5 191 Q 632.2 210.8 657 238.5 Q 675.2 258.8 685 287.5 L 691 315.5 L 692 347.5 L 691 348.5 L 690 366.5 L 684 396.5 L 675 425.5 L 662 457.5 Q 636.6 514.6 594.5 555 Q 568.6 579.6 533.5 595 Q 515.8 602.8 494.5 607 L 481.5 608 L 480.5 609 L 457.5 610 L 456.5 609 L 443.5 609 L 426.5 606 L 406.5 600 L 399 595.5 L 398 589.5 L 401.5 585 L 406.5 584 L 418.5 589 L 439.5 594 Q 445.8 592.3 447.5 595 L 476.5 595 L 507.5 589 Q 528.3 582.8 545.5 573 Q 576.4 555.4 599 529.5 Q 636.2 487.2 658 429.5 L 666 406.5 L 674 374.5 L 674 369.5 L 676 362.5 L 676 354.5 L 677 353.5 L 677 319.5 L 672 294.5 L 664 274.5 Q 651.4 251.1 632.5 234 Q 584.3 192.2 519.5 167 L 481.5 155 L 456.5 150 L 441.5 149 L 440.5 148 L 398.5 148 L 397.5 149 L 390.5 149 L 373.5 152 L 338.5 163 Q 301.6 178.6 277 206.5 Q 259.9 225.9 249 251.5 L 236 290.5 L 228 327.5 L 228 332.5 L 222 362.5 L 221 375.5 L 220 376.5 L 220 384.5 L 219 385.5 L 219 416.5 L 222 431.5 L 229 448.5 Q 240.5 467.5 257.5 481 Q 301.1 516.4 354.5 542 L 392.5 555 L 414.5 559 L 435.5 560 L 436.5 559 L 457.5 558 L 485.5 550 Q 513.1 537.6 532 516.5 Q 547 500.5 558 480.5 Q 571.5 456.5 580 427.5 L 589 393.5 L 595 362.5 L 596 347.5 L 597 346.5 L 597 311.5 L 593 291.5 L 584 270.5 Q 575.3 256.2 562.5 246 Q 548.2 234.8 530.5 227 L 498.5 216 L 467.5 209 L 447.5 207 L 446.5 206 L 408.5 205 L 407.5 206 L 397.5 206 L 381.5 209 L 357.5 217 Q 331.9 228.9 315 249.5 L 299 272.5 Q 287.2 293.2 280 318.5 L 276 333.5 L 270 367.5 L 269 400.5 L 270 401.5 L 270 410.5 L 272 420.5 L 278 437.5 Q 286.3 453.7 299.5 465 Q 314 477 331.5 486 L 383.5 509 L 408.5 517 L 427.5 521 Q 433 519.5 434.5 522 L 462.5 522 L 476.5 519 L 493.5 512 Q 510.4 502.4 522 487.5 Q 540.7 464.2 550 431.5 L 556 403.5 L 557 370.5 L 556 369.5 L 556 360.5 L 555 359.5 L 554 348.5 L 546 322.5 Q 532.3 290.7 507.5 270 Q 491.6 256.4 470.5 248 L 447.5 242 L 423.5 241 L 401.5 245 L 375.5 256 Q 357.3 266.3 344 281.5 Q 329.5 297.5 322 320.5 L 318 339.5 L 318 366.5 L 323 389.5 L 332 410.5 Q 341.6 427.4 355.5 440 Q 372.6 455.4 397.5 463 L 417.5 467 L 439.5 467 L 455.5 464 L 477.5 455 Q 494.4 445.4 506 430.5 Q 518.7 415.2 525 393.5 L 527 383.5 L 527 359.5 Q 519.1 320.9 492.5 301 Q 480.2 290.8 462.5 286 L 451.5 285 L 450.5 284 L 437.5 284 L 418.5 288 L 406.5 293 Q 389.4 301.9 378 316.5 L 367 337.5 L 364 353.5 L 364 363.5 L 368 383.5 L 375 398.5 Q 381.7 409.8 391.5 418 Q 400.5 426 413.5 430 L 422.5 432 L 440.5 432 Q 461.2 428.2 473 415.5 Q 479.5 409.5 482 399.5 Q 484.5 392 483 380.5 Q 479.5 364 468.5 355 Q 462.6 349.4 452.5 348 L 450 345.5 Q 448.3 336.8 453.5 335 L 464.5 336 Q 475.8 340.2 483 348.5 Q 490.9 357.1 495 369.5 L 497 377.5 L 498 391.5 L 497 392.5 L 496 403.5 L 490 417.5 L 476.5 432 Q 466.5 440 452.5 444 L 435.5 447 L 426.5 447 L 425.5 446 L 413.5 445 L 401.5 441 Q 384.4 433.6 373 420.5 Q 359.4 405.6 353 383.5 L 350 369.5 L 350 348.5 L 352 337.5 L 359 319.5 Q 367.8 303.3 381.5 292 Q 395.5 280.5 414.5 274 L 432.5 270 L 455.5 270 L 469.5 273 L 488.5 281 Q 505.8 290.8 518 305.5 Q 531.1 320.9 538 342.5 L 542 362.5 L 542 380.5 L 538 400.5 L 530 420.5 Q 519.3 440.9 502.5 455 Q 489.1 466.6 471.5 474 L 450.5 480 L 424.5 482 L 423.5 481 L 412.5 481 L 401.5 479 L 379.5 472 Q 351.2 459.8 333 437.5 Q 317.4 419.1 309 393.5 L 304 370.5 L 303 346.5 L 304 345.5 L 304 336.5 L 307 320.5 Q 311.5 304.5 319 291.5 Q 330.8 271.3 348.5 257 Q 367.5 240.5 394.5 232 L 418.5 227 L 443.5 227 L 471.5 233 L 497.5 245 Q 516.4 256.6 531 272.5 Q 552.7 295.8 564 329.5 L 568 344.5 L 570 363.5 L 571 364.5 L 571 398.5 L 570 399.5 L 570 407.5 L 566 428.5 L 555 460.5 Q 541.4 491.9 517.5 513 Q 502.2 526.2 480.5 533 L 465.5 536 L 441.5 537 L 440.5 536 L 423.5 535 L 397.5 529 L 379.5 523 L 341.5 507 Q 319.9 497.6 301.5 485 L 277 462.5 Q 262.6 445.4 257 419.5 L 256 407.5 L 255 406.5 L 255 372.5 L 256 371.5 L 257 355.5 L 261 334.5 Q 266.7 308.7 276 286.5 Q 290.9 250.4 317.5 226 L 339.5 210 L 358.5 201 L 377.5 195 L 393.5 192 L 401.5 192 L 402.5 191 L 441.5 191 L 442.5 192 L 458.5 193 L 481.5 197 L 524.5 209 Q 543.7 215.8 559.5 226 Q 574.6 235.4 586 248.5 Q 599.8 264.7 607 287.5 L 612 316.5 L 612 341.5 L 611 342.5 L 611 353.5 L 610 354.5 L 609 367.5 L 603 397.5 L 593 434.5 L 584 459.5 Q 564.7 508.2 528.5 540 Q 506.3 559.3 474.5 569 L 445.5 574 L 421.5 574 L 420.5 573 L 404.5 572 L 378.5 566 Q 350.8 557.7 327.5 545 L 271.5 510 Q 247.8 494.2 229 473.5 Q 215.9 459.1 209 438.5 L 205 420.5 L 204 392.5 L 205 391.5 L 205 380.5 L 206 379.5 L 207 364.5 L 214 328.5 L 214 323.5 L 221 290.5 L 230 260.5 L 247 223.5 Q 259.3 202.3 276.5 186 Q 300.9 162.9 334.5 149 L 369.5 138 L 386.5 135 L 393.5 135 L 394.5 134 L 405.5 134 L 406.5 133 Z " /><path fill="rgb(144,123,177)" stroke="rgb(144,123,177)" stroke-width="0" opacity="0.9921568627450981" d="M 219.5 658 Q 225.5 656.5 227 659.5 L 228 662.5 L 228 709.5 L 229 710.5 L 229 737.5 L 230 738.5 L 231 803.5 L 228 810 L 221.5 811 L 219 806.5 L 219 733.5 L 218 732.5 L 217.5 718 L 208 757.5 L 206 775.5 L 201.5 785 L 197.5 786 L 193 782.5 L 191 773.5 L 190 748.5 L 177.5 699 L 177 755.5 L 178 756.5 L 178 802.5 L 175.5 806 Q 170.4 806.6 169 803.5 L 167 798.5 L 167 777.5 L 168 776.5 L 168 714.5 L 167 713.5 L 167 669.5 L 168 663 L 171.5 661 L 174.5 661 L 179 667.5 L 186 689.5 L 199.5 755 L 212 699.5 L 214 681.5 L 215 680.5 L 215 672.5 L 216 671.5 L 216 661.5 L 219.5 658 Z " /><path fill="rgb(144,123,177)" stroke="rgb(144,123,177)" stroke-width="0" opacity="0.9921568627450981" d="M 543.5 658 Q 549.8 656.8 551 660.5 L 555 802.5 Q 553.8 808.3 549.5 811 Q 545 812 544 809.5 L 543 807.5 L 543 756.5 L 542 755.5 L 541.5 717 L 532 756.5 L 530 774.5 L 525.5 785 L 520.5 786 L 516 780.5 L 514 749.5 L 501.5 699 L 500 726.5 L 501 727.5 L 501 762.5 L 502 763.5 L 502 801.5 L 500 806 Q 494.1 806.9 492 802.5 L 491 799.5 L 491 773.5 L 492 772.5 L 492 735.5 L 491 734.5 L 491 664.5 Q 492.8 661.3 497.5 661 L 504 670.5 L 509 686.5 L 517 721.5 L 522 752.5 L 523.5 755 L 536 698.5 L 538 679.5 L 539 678.5 L 539 670.5 L 540 669.5 L 540 661.5 L 543.5 658 Z " /><path fill="rgb(144,123,177)" stroke="rgb(144,123,177)" stroke-width="0" opacity="0.9921568627450981" d="M 593.5 678 L 603.5 678 L 606 680.5 L 607 682.5 L 607 699.5 L 608 700.5 L 609 717.5 L 610 718.5 L 612 740.5 L 613 741.5 L 613 750.5 L 614 751.5 L 614 767.5 L 620 798.5 L 620 805.5 Q 618.8 809.3 612.5 808 L 609 805.5 L 608 803.5 L 607 783.5 L 604.5 778 L 587.5 775 Q 583.1 784.6 583 798.5 L 581 804.5 L 578.5 807 Q 571.5 808.5 570 804.5 L 570 800.5 L 583 745.5 L 583 740.5 L 589 709.5 L 591 683.5 L 593.5 678 Z M 599 703 L 587 768 L 592 770 L 604 771 L 603 740 L 602 739 L 602 729 L 601 728 L 600 710 L 599 703 Z " /><path fill="rgb(144,123,177)" stroke="rgb(144,123,177)" stroke-width="0" opacity="0.9921568627450981" d="M 261.5 679 L 274.5 679 L 277 681.5 L 278 684.5 L 277 688 Q 274.6 689.8 268.5 689 L 266 691.5 L 267 733.5 L 268 734.5 L 268 750.5 L 269 751.5 L 269 763.5 L 270 764.5 L 270 775.5 L 271 776.5 L 271 795 L 274.5 794 L 279.5 795 L 282 797.5 L 283 803 L 277.5 806 L 255.5 806 L 251.5 805 L 248 801.5 Q 247.3 796.8 250.5 796 L 259.5 796 L 260 794.5 L 261 793.5 L 261 782.5 L 260 781.5 L 260 770.5 L 259 769.5 L 257 715.5 L 258 714.5 L 258 693.5 L 257 691 Q 249.9 692.7 248 688.5 Q 247.3 682.8 251.5 682 L 261.5 679 Z " /><path fill="rgb(144,123,177)" stroke="rgb(144,123,177)" stroke-width="0" opacity="0.9921568627450981" d="M 308.5 679 L 312.5 680 L 315 682.5 L 327 707.5 L 350.5 787 L 352 783.5 L 353 754.5 L 354 753.5 L 355 682.5 L 356.5 681 L 359.5 680 L 363 681 L 365 685.5 L 365 722.5 L 364 723.5 L 364 748.5 L 363 749.5 L 362 783.5 L 361 784.5 L 360 800.5 L 357.5 806 L 349.5 807 L 347 806 Q 344.3 799.9 344 790.5 L 333 756.5 L 311.5 701 L 311 795.5 Q 313.8 797.2 313 802.5 L 312 805 Q 309.9 806.6 304.5 806 L 301 799.5 L 301 704.5 L 302 703.5 L 302 687.5 L 306 680 L 308.5 679 Z " /><path fill="rgb(144,123,177)" stroke="rgb(144,123,177)" stroke-width="0" opacity="0.9921568627450981" d="M 652.5 679 L 667.5 679 L 672 681.5 L 673 685.5 L 671 695.5 L 664 714.5 L 660 738.5 L 645 795.5 L 648.5 797 L 649.5 796 L 660.5 796 L 664 798.5 Q 665 804 661.5 805 L 644.5 805 L 637.5 807 Q 632.3 805.3 634 796.5 L 635 795.5 L 637 777.5 L 643 753.5 L 655 716.5 L 662 689 L 645.5 690 L 643 689 L 642 683.5 L 646.5 680 Q 651.3 681.3 652.5 679 Z " /><path fill="rgb(144,123,177)" stroke="rgb(144,123,177)" stroke-width="0" opacity="0.9921568627450981" d="M 393.5 680 Q 402.4 678.6 407.5 681 Q 417.2 684.8 423 692.5 L 432 707.5 L 436 722.5 L 436 762.5 L 435 763.5 L 435 773.5 L 431 787.5 Q 426.4 796.9 418.5 803 L 410.5 808 L 396.5 808 L 394 805.5 L 392 797.5 L 392 706.5 L 391 705.5 L 390 684.5 L 393.5 680 Z M 405 689 L 403 691 L 403 701 L 402 702 L 404 764 L 405 765 L 405 798 L 413 796 Q 418 792 421 785 L 426 762 L 426 732 L 425 731 L 424 717 L 419 701 L 414 693 L 410 690 L 405 689 Z " /><path fill="rgb(144,123,177)" stroke="rgb(144,123,177)" stroke-width="0" opacity="0.9921568627450981" d="M 698.5 680 L 709.5 680 L 724 685 L 725 689.5 L 724 692 L 720.5 694 L 717.5 694 L 709.5 691 L 705 691 L 704 727.5 L 705.5 729 L 715.5 729 L 720 731.5 L 721 735.5 L 720 738 L 717.5 739 L 705 739 L 704 799 L 723.5 799 L 726 801.5 Q 727 807 723.5 808 L 720.5 809 L 699.5 809 L 695 805.5 L 695 792.5 L 694 791.5 L 694 727.5 L 695 726.5 L 695 704.5 L 694 703.5 L 694 686.5 L 698.5 680 Z " /><path fill="rgb(186,155,201)" stroke="rgb(186,155,201)" stroke-width="0" opacity="0.39215686274509803" d="M 412.5 132 L 427 132.5 L 412.5 133 L 412.5 132 Z " /><path fill="rgb(186,155,201)" stroke="rgb(186,155,201)" stroke-width="0" opacity="0.39215686274509803" d="M 396.5 133 L 406 133.5 L 396.5 134 L 396.5 133 Z " /><path fill="rgb(186,155,201)" stroke="rgb(186,155,201)" stroke-width="0" opacity="0.39215686274509803" d="M 433.5 133 L 443 133.5 L 433.5 134 L 433.5 133 Z " /><path fill="rgb(186,155,201)" stroke="rgb(186,155,201)" stroke-width="0" opacity="0.39215686274509803" d="M 387.5 134 L 394 134.5 L 387.5 135 L 387.5 134 Z " /><path fill="rgb(186,155,201)" stroke="rgb(186,155,201)" stroke-width="0" opacity="0.39215686274509803" d="M 445.5 134 L 453 134.5 L 445.5 135 L 445.5 134 Z " /><path fill="rgb(186,155,201)" stroke="rgb(186,155,201)" stroke-width="0" opacity="0.39215686274509803" d="M 381.5 135 L 386 135.5 L 381.5 136 L 381.5 135 Z " /><path fill="rgb(186,155,201)" stroke="rgb(186,155,201)" stroke-width="0" opacity="0.39215686274509803" d="M 454.5 135 L 460 135.5 L 454.5 136 L 454.5 135 Z " /><path fill="rgb(186,155,201)" stroke="rgb(186,155,201)" stroke-width="0" opacity="0.39215686274509803" d="M 375.5 136 L 380 136.5 L 375.5 137 L 375.5 136 Z " /><path fill="rgb(186,155,201)" stroke="rgb(186,155,201)" stroke-width="0" opacity="0.39215686274509803" d="M 461.5 136 L 466 136.5 L 461.5 137 L 461.5 136 Z " /><path fill="rgb(186,155,201)" stroke="rgb(186,155,201)" stroke-width="0" opacity="0.39215686274509803" d="M 370.5 137 L 374 137.5 L 370.5 138 L 370.5 137 Z " /><path fill="rgb(186,155,201)" stroke="rgb(186,155,201)" stroke-width="0" opacity="0.39215686274509803" d="M 467.5 137 L 471 137.5 L 467.5 138 L 467.5 137 Z " /><path fill="rgb(186,155,201)" stroke="rgb(186,155,201)" stroke-width="0" opacity="0.39215686274509803" d="M 366.5 138 L 369 138.5 L 366.5 139 L 366.5 138 Z " /><path fill="rgb(186,155,201)" stroke="rgb(186,155,201)" stroke-width="0" opacity="0.39215686274509803" d="M 472.5 138 L 476 138.5 L 472.5 139 L 472.5 138 Z " /><path fill="rgb(186,155,201)" stroke="rgb(186,155,201)" stroke-width="0" opacity="0.39215686274509803" d="M 362.5 139 L 365 139.5 L 362.5 140 L 362.5 139 Z " /><path fill="rgb(186,155,201)" stroke="rgb(186,155,201)" stroke-width="0" opacity="0.39215686274509803" d="M 477.5 139 L 496 143.5 L 493.5 144 L 477.5 140 L 477.5 139 Z " /><path fill="rgb(186,155,201)" stroke="rgb(186,155,201)" stroke-width="0" opacity="0.39215686274509803" d="M 358.5 140 L 361 140.5 L 340.5 147 L 340.5 146 L 358.5 140 Z " /><path fill="rgb(186,155,201)" stroke="rgb(186,155,201)" stroke-width="0" opacity="0.39215686274509803" d="M 497.5 144 L 509 147.5 L 506.5 148 L 497.5 145 L 497.5 144 Z " /><path fill="rgb(186,155,201)" stroke="rgb(186,155,201)" stroke-width="0" opacity="0.39215686274509803" d="M 337.5 147 L 339 147.5 L 335.5 149 L 335.5 148 L 337.5 147 Z " /><path fill="rgb(186,155,201)" stroke="rgb(186,155,201)" stroke-width="0" opacity="0.39215686274509803" d="M 398.5 148 L 410 148.5 L 398.5 149 L 398.5 148 Z " /><path fill="rgb(186,155,201)" stroke="rgb(186,155,201)" stroke-width="0" opacity="0.39215686274509803" d="M 429.5 148 L 441 148.5 L 429.5 149 L 429.5 148 Z " /><path fill="rgb(186,155,201)" stroke="rgb(186,155,201)" stroke-width="0" opacity="0.39215686274509803" d="M 332.5 149 L 334 149.5 L 328.5 152 L 328.5 151 L 332.5 149 Z " /><path fill="rgb(186,155,201)" stroke="rgb(186,155,201)" stroke-width="0" opacity="0.39215686274509803" d="M 390.5 149 L 396 149.5 L 390.5 150 L 390.5 149 Z " /><path fill="rgb(186,155,201)" stroke="rgb(186,155,201)" stroke-width="0" opacity="0.39215686274509803" d="M 443.5 149 L 450 149.5 L 443.5 150 L 443.5 149 Z " /><path fill="rgb(186,155,201)" stroke="rgb(186,155,201)" stroke-width="0" opacity="0.39215686274509803" d="M 513.5 149 L 523 152.5 L 521.5 153 L 513.5 150 L 513.5 149 Z " /><path fill="rgb(186,155,201)" stroke="rgb(186,155,201)" stroke-width="0" opacity="0.39215686274509803" d="M 383.5 150 L 389 150.5 L 383.5 151 L 383.5 150 Z " /><path fill="rgb(186,155,201)" stroke="rgb(186,155,201)" stroke-width="0" opacity="0.39215686274509803" d="M 451.5 150 L 457 150.5 L 451.5 151 L 451.5 150 Z " /><path fill="rgb(186,155,201)" stroke="rgb(186,155,201)" stroke-width="0" opacity="0.39215686274509803" d="M 378.5 151 L 382 151.5 L 378.5 152 L 378.5 151 Z " /><path fill="rgb(186,155,201)" stroke="rgb(186,155,201)" stroke-width="0" opacity="0.39215686274509803" d="M 458.5 151 L 463 151.5 L 458.5 152 L 458.5 151 Z " /><path fill="rgb(186,155,201)" stroke="rgb(186,155,201)" stroke-width="0" opacity="0.39215686274509803" d="M 325.5 152 L 327 152.5 Q 293.5 167.5 270 192.5 Q 246.7 217.2 233.5 252 L 233 250.5 Q 249.2 209.2 279.5 182 Q 299.6 164.1 325.5 152 Z " /><path fill="rgb(186,155,201)" stroke="rgb(186,155,201)" stroke-width="0" opacity="0.39215686274509803" d="M 373.5 152 L 377 152.5 L 369.5 154 L 369.5 153 L 373.5 152 Z " /><path fill="rgb(186,155,201)" stroke="rgb(186,155,201)" stroke-width="0" opacity="0.39215686274509803" d="M 464.5 152 L 468 152.5 L 464.5 153 L 464.5 152 Z " /><path fill="rgb(186,155,201)" stroke="rgb(186,155,201)" stroke-width="0" opacity="0.39215686274509803" d="M 469.5 153 L 473 153.5 L 469.5 154 L 469.5 153 Z " /><path fill="rgb(186,155,201)" stroke="rgb(186,155,201)" stroke-width="0" opacity="0.39215686274509803" d="M 524.5 153 L 547 162.5 L 545.5 163 L 524.5 154 L 524.5 153 Z " /><path fill="rgb(186,155,201)" stroke="rgb(186,155,201)" stroke-width="0" opacity="0.39215686274509803" d="M 365.5 154 L 368 154.5 Q 313 168.5 280 204.5 Q 252.8 234.3 240.5 279 L 240 276.5 Q 255 224.5 290.5 193 Q 320.7 166.2 365.5 154 Z " /><path fill="rgb(186,155,201)" stroke="rgb(186,155,201)" stroke-width="0" opacity="0.39215686274509803" d="M 474.5 154 L 477 154.5 L 474.5 155 L 474.5 154 Z " /><path fill="rgb(186,155,201)" stroke="rgb(186,155,201)" stroke-width="0" opacity="0.39215686274509803" d="M 478.5 155 L 485 156.5 L 482.5 157 L 478.5 156 L 478.5 155 Z " /><path fill="rgb(186,155,201)" stroke="rgb(186,155,201)" stroke-width="0" opacity="0.39215686274509803" d="M 486.5 157 L 489 157.5 L 486.5 158 L 486.5 157 Z " /><path fill="rgb(186,155,201)" stroke="rgb(186,155,201)" stroke-width="0" opacity="0.39215686274509803" d="M 490.5 158 L 499 160.5 L 496.5 161 L 490.5 159 L 490.5 158 Z " /><path fill="rgb(186,155,201)" stroke="rgb(186,155,201)" stroke-width="0" opacity="0.39215686274509803" d="M 500.5 161 L 511 164.5 L 509.5 165 L 500.5 162 L 500.5 161 Z " /><path fill="rgb(186,155,201)" stroke="rgb(186,155,201)" stroke-width="0" opacity="0.39215686274509803" d="M 548.5 163 Q 606.3 188.2 649 228.5 Q 672.2 250.3 684 283.5 L 683 283.5 Q 667.8 242.7 636.5 218 L 599.5 191 Q 575.7 175.8 548.5 164 L 548.5 163 Z " /><path fill="rgb(186,155,201)" stroke="rgb(186,155,201)" stroke-width="0" opacity="0.39215686274509803" d="M 512.5 165 Q 588.7 191.8 641 242.5 Q 658.4 259.6 668 284.5 L 667 284.5 Q 652.7 250.3 625.5 229 Q 601.6 208.4 572.5 193 L 536.5 175 L 514.5 167 L 512.5 165 Z " /><path fill="rgb(186,155,201)" stroke="rgb(186,155,201)" stroke-width="0" opacity="0.39215686274509803" d="M 405.5 190 L 439 190.5 L 405.5 191 L 405.5 190 Z " /><path fill="rgb(186,155,201)" stroke="rgb(186,155,201)" stroke-width="0" opacity="0.39215686274509803" d="M 395.5 191 L 402 191.5 L 395.5 192 L 395.5 191 Z " /><path fill="rgb(186,155,201)" stroke="rgb(186,155,201)" stroke-width="0" opacity="0.39215686274509803" d="M 442.5 191 L 450 191.5 L 442.5 192 L 442.5 191 Z " /><path fill="rgb(186,155,201)" stroke="rgb(186,155,201)" stroke-width="0" opacity="0.39215686274509803" d="M 388.5 192 L 393 192.5 L 388.5 193 L 388.5 192 Z " /><path fill="rgb(186,155,201)" stroke="rgb(186,155,201)" stroke-width="0" opacity="0.39215686274509803" d="M 451.5 192 L 458 192.5 L 451.5 193 L 451.5 192 Z " /><path fill="rgb(186,155,201)" stroke="rgb(186,155,201)" stroke-width="0" opacity="0.39215686274509803" d="M 383.5 193 L 387 193.5 L 383.5 194 L 383.5 193 Z " /><path fill="rgb(186,155,201)" stroke="rgb(186,155,201)" stroke-width="0" opacity="0.39215686274509803" d="M 459.5 193 L 465 193.5 L 459.5 194 L 459.5 193 Z " /><path fill="rgb(186,155,201)" stroke="rgb(186,155,201)" stroke-width="0" opacity="0.39215686274509803" d="M 378.5 194 L 382 194.5 L 378.5 195 L 378.5 194 Z " /><path fill="rgb(186,155,201)" stroke="rgb(186,155,201)" stroke-width="0" opacity="0.39215686274509803" d="M 466.5 194 L 476 195.5 L 471.5 196 L 466.5 195 L 466.5 194 Z " /><path fill="rgb(186,155,201)" stroke="rgb(186,155,201)" stroke-width="0" opacity="0.39215686274509803" d="M 374.5 195 L 377 195.5 Q 332.5 206.5 307 236.5 Q 284.8 261.3 272.5 296 L 272 294.5 Q 287.8 250.8 319.5 223 Q 341.6 203.6 374.5 195 Z " /><path fill="rgb(186,155,201)" stroke="rgb(186,155,201)" stroke-width="0" opacity="0.39215686274509803" d="M 477.5 196 L 481 196.5 L 477.5 197 L 477.5 196 Z " /><path fill="rgb(186,155,201)" stroke="rgb(186,155,201)" stroke-width="0" opacity="0.39215686274509803" d="M 482.5 197 L 490 198.5 L 486.5 199 L 482.5 198 L 482.5 197 Z " /><path fill="rgb(186,155,201)" stroke="rgb(186,155,201)" stroke-width="0" opacity="0.39215686274509803" d="M 491.5 199 L 494 199.5 L 491.5 200 L 491.5 199 Z " /><path fill="rgb(186,155,201)" stroke="rgb(186,155,201)" stroke-width="0" opacity="0.39215686274509803" d="M 495.5 200 L 498 200.5 L 495.5 201 L 495.5 200 Z " /><path fill="rgb(186,155,201)" stroke="rgb(186,155,201)" stroke-width="0" opacity="0.39215686274509803" d="M 499.5 201 L 512 204.5 L 509.5 205 L 499.5 202 L 499.5 201 Z " /><path fill="rgb(186,155,201)" stroke="rgb(186,155,201)" stroke-width="0" opacity="0.39215686274509803" d="M 408.5 205 L 435 205.5 L 408.5 206 L 408.5 205 Z " /><path fill="rgb(186,155,201)" stroke="rgb(186,155,201)" stroke-width="0" opacity="0.39215686274509803" d="M 513.5 205 L 524 208.5 L 522.5 209 L 513.5 206 L 513.5 205 Z " /><path fill="rgb(186,155,201)" stroke="rgb(186,155,201)" stroke-width="0" opacity="0.39215686274509803" d="M 397.5 206 L 405 206.5 L 397.5 207 L 397.5 206 Z " /><path fill="rgb(186,155,201)" stroke="rgb(186,155,201)" stroke-width="0" opacity="0.39215686274509803" d="M 438.5 206 L 447 206.5 L 438.5 207 L 438.5 206 Z " /><path fill="rgb(186,155,201)" stroke="rgb(186,155,201)" stroke-width="0" opacity="0.39215686274509803" d="M 391.5 207 L 396 207.5 L 391.5 208 L 391.5 207 Z " /><path fill="rgb(186,155,201)" stroke="rgb(186,155,201)" stroke-width="0" opacity="0.39215686274509803" d="M 449.5 207 L 455 207.5 L 449.5 208 L 449.5 207 Z " /><path fill="rgb(186,155,201)" stroke="rgb(186,155,201)" stroke-width="0" opacity="0.39215686274509803" d="M 386.5 208 L 390 208.5 L 386.5 209 L 386.5 208 Z " /><path fill="rgb(186,155,201)" stroke="rgb(186,155,201)" stroke-width="0" opacity="0.39215686274509803" d="M 456.5 208 L 462 208.5 L 456.5 209 L 456.5 208 Z " /><path fill="rgb(186,155,201)" stroke="rgb(186,155,201)" stroke-width="0" opacity="0.39215686274509803" d="M 381.5 209 L 385 209.5 L 374.5 212 L 374.5 211 L 381.5 209 Z " /><path fill="rgb(186,155,201)" stroke="rgb(186,155,201)" stroke-width="0" opacity="0.39215686274509803" d="M 463.5 209 L 473 210.5 L 468.5 211 L 463.5 210 L 463.5 209 Z " /><path fill="rgb(186,155,201)" stroke="rgb(186,155,201)" stroke-width="0" opacity="0.39215686274509803" d="M 525.5 209 L 543 216.5 L 541.5 217 L 525.5 210 L 525.5 209 Z " /><path fill="rgb(186,155,201)" stroke="rgb(186,155,201)" stroke-width="0" opacity="0.39215686274509803" d="M 474.5 211 L 478 211.5 L 474.5 212 L 474.5 211 Z " /><path fill="rgb(186,155,201)" stroke="rgb(186,155,201)" stroke-width="0" opacity="0.39215686274509803" d="M 370.5 212 L 373 212.5 L 365.5 215 L 365.5 214 L 370.5 212 Z " /><path fill="rgb(186,155,201)" stroke="rgb(186,155,201)" stroke-width="0" opacity="0.39215686274509803" d="M 479.5 212 L 491 214.5 L 487.5 215 L 479.5 213 L 479.5 212 Z " /><path fill="rgb(186,155,201)" stroke="rgb(186,155,201)" stroke-width="0" opacity="0.39215686274509803" d="M 362.5 215 L 364 215.5 L 360.5 217 L 360.5 216 L 362.5 215 Z " /><path fill="rgb(186,155,201)" stroke="rgb(186,155,201)" stroke-width="0" opacity="0.39215686274509803" d="M 492.5 215 L 502 217.5 L 499.5 218 L 492.5 216 L 492.5 215 Z " /><path fill="rgb(186,155,201)" stroke="rgb(186,155,201)" stroke-width="0" opacity="0.39215686274509803" d="M 357.5 217 L 359 217.5 Q 333.8 228.8 317 248.5 Q 299.1 269.1 288.5 297 L 288 295.5 Q 302.6 258.1 330.5 234 Q 342.5 224 357.5 217 Z " /><path fill="rgb(186,155,201)" stroke="rgb(186,155,201)" stroke-width="0" opacity="0.39215686274509803" d="M 544.5 217 Q 570.8 228.8 588 249.5 Q 600.7 264.8 607 286.5 L 606 286.5 Q 596.9 255.1 574.5 237 Q 561.3 225.7 544.5 218 L 544.5 217 Z " /><path fill="rgb(186,155,201)" stroke="rgb(186,155,201)" stroke-width="0" opacity="0.39215686274509803" d="M 503.5 218 Q 550 229.5 577 260.5 L 590 282.5 L 593 293.5 L 592 293.5 Q 584.3 264.3 563.5 248 L 544.5 235 Q 526.5 224.5 503.5 219 L 503.5 218 Z " /><path fill="rgb(186,155,201)" stroke="rgb(186,155,201)" stroke-width="0" opacity="0.39215686274509803" d="M 420.5 226 L 442 226.5 L 420.5 227 L 420.5 226 Z " /><path fill="rgb(186,155,201)" stroke="rgb(186,155,201)" stroke-width="0" opacity="0.39215686274509803" d="M 412.5 227 L 418 227.5 L 412.5 228 L 412.5 227 Z " /><path fill="rgb(186,155,201)" stroke="rgb(186,155,201)" stroke-width="0" opacity="0.39215686274509803" d="M 444.5 227 L 450 227.5 L 444.5 228 L 444.5 227 Z " /><path fill="rgb(186,155,201)" stroke="rgb(186,155,201)" stroke-width="0" opacity="0.39215686274509803" d="M 406.5 228 L 411 228.5 L 402.5 230 L 402.5 229 L 406.5 228 Z " /><path fill="rgb(186,155,201)" stroke="rgb(186,155,201)" stroke-width="0" opacity="0.39215686274509803" d="M 451.5 228 L 456 228.5 L 451.5 229 L 451.5 228 Z " /><path fill="rgb(186,155,201)" stroke="rgb(186,155,201)" stroke-width="0" opacity="0.39215686274509803" d="M 457.5 229 L 471 232.5 L 468.5 233 Q 464.5 230 457.5 230 L 457.5 229 Z " /><path fill="rgb(186,155,201)" stroke="rgb(186,155,201)" stroke-width="0" opacity="0.39215686274509803" d="M 398.5 230 L 401 230.5 Q 355.5 243 330 275.5 Q 314.7 293.7 307.5 320 L 307 317.5 L 319 289.5 Q 329.4 273 343.5 260 Q 365.4 239.4 398.5 230 Z " /><path fill="rgb(186,155,201)" stroke="rgb(186,155,201)" stroke-width="0" opacity="0.39215686274509803" d="M 472.5 233 L 479 235.5 L 477.5 236 L 472.5 234 L 472.5 233 Z " /><path fill="rgb(186,155,201)" stroke="rgb(186,155,201)" stroke-width="0" opacity="0.39215686274509803" d="M 480.5 236 Q 512.9 249.6 534 274.5 Q 548.1 289.9 557 310.5 L 556 310.5 Q 542.8 281.7 520.5 262 L 497.5 245 L 480.5 237 L 480.5 236 Z " /><path fill="rgb(186,155,201)" stroke="rgb(186,155,201)" stroke-width="0" opacity="0.39215686274509803" d="M 423.5 241 L 440 241.5 L 423.5 242 L 423.5 241 Z " /><path fill="rgb(186,155,201)" stroke="rgb(186,155,201)" stroke-width="0" opacity="0.39215686274509803" d="M 415.5 242 L 421 242.5 L 415.5 243 L 415.5 242 Z " /><path fill="rgb(186,155,201)" stroke="rgb(186,155,201)" stroke-width="0" opacity="0.39215686274509803" d="M 443.5 242 L 448 242.5 L 443.5 243 L 443.5 242 Z " /><path fill="rgb(186,155,201)" stroke="rgb(186,155,201)" stroke-width="0" opacity="0.39215686274509803" d="M 409.5 243 L 414 243.5 Q 371.1 252.1 347 279.5 Q 330.1 296.6 322.5 323 L 322 320.5 Q 332.4 289.9 354.5 271 Q 376.2 251.2 409.5 243 Z " /><path fill="rgb(186,155,201)" stroke="rgb(186,155,201)" stroke-width="0" opacity="0.39215686274509803" d="M 449.5 243 L 453.5 243 L 470.5 248 L 492.5 259 Q 510.5 270.5 524 286.5 Q 541.5 306.5 550 335.5 L 549 335.5 Q 537.2 296.3 509.5 273 L 485.5 256 L 470.5 249 L 453.5 244 L 449.5 244 L 449.5 243 Z " /><path fill="rgb(186,155,201)" stroke="rgb(186,155,201)" stroke-width="0" opacity="0.39215686274509803" d="M 232.5 253 L 233 254.5 L 230.5 260 L 230 258.5 L 232.5 253 Z " /><path fill="rgb(186,155,201)" stroke="rgb(186,155,201)" stroke-width="0" opacity="0.39215686274509803" d="M 229.5 261 L 230 262.5 L 227.5 269 L 227 266.5 L 229.5 261 Z " /><path fill="rgb(186,155,201)" stroke="rgb(186,155,201)" stroke-width="0" opacity="0.39215686274509803" d="M 433.5 269 L 455 269.5 L 433.5 270 L 433.5 269 Z " /><path fill="rgb(186,155,201)" stroke="rgb(186,155,201)" stroke-width="0" opacity="0.39215686274509803" d="M 427.5 270 L 432 270.5 L 427.5 271 L 427.5 270 Z " /><path fill="rgb(186,155,201)" stroke="rgb(186,155,201)" stroke-width="0" opacity="0.39215686274509803" d="M 456.5 270 L 461 270.5 L 456.5 271 L 456.5 270 Z " /><path fill="rgb(186,155,201)" stroke="rgb(186,155,201)" stroke-width="0" opacity="0.39215686274509803" d="M 422.5 271 L 426 271.5 L 422.5 272 L 422.5 271 Z " /><path fill="rgb(186,155,201)" stroke="rgb(186,155,201)" stroke-width="0" opacity="0.39215686274509803" d="M 462.5 271 Q 499.4 279.6 519 305.5 Q 530 318 536 335.5 L 535 335.5 Q 525 308.5 504.5 292 L 488.5 281 Q 477.7 274.3 462.5 272 L 462.5 271 Z " /><path fill="rgb(186,155,201)" stroke="rgb(186,155,201)" stroke-width="0" opacity="0.39215686274509803" d="M 418.5 272 L 421 272.5 L 415.5 274 L 415.5 273 L 418.5 272 Z " /><path fill="rgb(186,155,201)" stroke="rgb(186,155,201)" stroke-width="0" opacity="0.39215686274509803" d="M 225.5 273 L 226 275.5 L 224.5 279 L 224 276.5 L 225.5 273 Z " /><path fill="rgb(186,155,201)" stroke="rgb(186,155,201)" stroke-width="0" opacity="0.39215686274509803" d="M 409.5 275 L 411 275.5 Q 385.1 285.1 369 304.5 L 357.5 323 L 357 321.5 Q 366.3 303.3 381.5 291 Q 393.5 281 409.5 275 Z " /><path fill="rgb(186,155,201)" stroke="rgb(186,155,201)" stroke-width="0" opacity="0.39215686274509803" d="M 223.5 280 L 224 282.5 L 221.5 290 L 221 287.5 L 223.5 280 Z " /><path fill="rgb(186,155,201)" stroke="rgb(186,155,201)" stroke-width="0" opacity="0.39215686274509803" d="M 239.5 280 L 240 282.5 L 238.5 286 L 238 283.5 L 239.5 280 Z " /><path fill="rgb(186,155,201)" stroke="rgb(186,155,201)" stroke-width="0" opacity="0.39215686274509803" d="M 437.5 284 L 451 284.5 L 437.5 285 L 437.5 284 Z " /><path fill="rgb(186,155,201)" stroke="rgb(186,155,201)" stroke-width="0" opacity="0.39215686274509803" d="M 430.5 285 L 435 285.5 L 430.5 286 L 430.5 285 Z " /><path fill="rgb(186,155,201)" stroke="rgb(186,155,201)" stroke-width="0" opacity="0.39215686274509803" d="M 453.5 285 L 458.5 285 L 466 287.5 L 463.5 288 Q 460.2 285.3 453.5 286 L 453.5 285 Z " /><path fill="rgb(186,155,201)" stroke="rgb(186,155,201)" stroke-width="0" opacity="0.39215686274509803" d="M 425.5 286 L 429 286.5 L 422.5 288 L 422.5 287 L 425.5 286 Z " /><path fill="rgb(186,155,201)" stroke="rgb(186,155,201)" stroke-width="0" opacity="0.39215686274509803" d="M 668.5 286 L 673 300.5 L 672 300.5 L 668.5 286 Z " /><path fill="rgb(186,155,201)" stroke="rgb(186,155,201)" stroke-width="0" opacity="0.39215686274509803" d="M 237.5 287 L 238 289.5 L 234.5 302 L 234 298.5 L 237.5 287 Z " /><path fill="rgb(186,155,201)" stroke="rgb(186,155,201)" stroke-width="0" opacity="0.39215686274509803" d="M 418.5 288 L 421 288.5 Q 395.1 296.6 380 315.5 Q 371.6 325.6 367.5 340 L 367 337.5 Q 375 315 392.5 302 Q 403.6 293.1 418.5 288 Z " /><path fill="rgb(186,155,201)" stroke="rgb(186,155,201)" stroke-width="0" opacity="0.39215686274509803" d="M 607.5 288 L 609 294.5 L 608 294.5 L 607.5 288 Z " /><path fill="rgb(186,155,201)" stroke="rgb(186,155,201)" stroke-width="0" opacity="0.39215686274509803" d="M 685.5 288 L 688 297.5 L 687 297.5 L 685.5 288 Z " /><path fill="rgb(186,155,201)" stroke="rgb(186,155,201)" stroke-width="0" opacity="0.39215686274509803" d="M 470.5 289 Q 494.9 298.1 509 317.5 L 522 340.5 L 524 348.5 L 523 348.5 Q 514.6 318.4 492.5 302 Q 483.5 294 470.5 290 L 470.5 289 Z " /><path fill="rgb(186,155,201)" stroke="rgb(186,155,201)" stroke-width="0" opacity="0.39215686274509803" d="M 220.5 291 L 221 294.5 L 218.5 303 L 218 299.5 L 220.5 291 Z " /><path fill="rgb(186,155,201)" stroke="rgb(186,155,201)" stroke-width="0" opacity="0.39215686274509803" d="M 593.5 295 L 594 297.5 L 593 297.5 L 593.5 295 Z " /><path fill="rgb(186,155,201)" stroke="rgb(186,155,201)" stroke-width="0" opacity="0.39215686274509803" d="M 609.5 296 L 610 299.5 L 609 299.5 L 609.5 296 Z " /><path fill="rgb(186,155,201)" stroke="rgb(186,155,201)" stroke-width="0" opacity="0.39215686274509803" d="M 271.5 297 L 272 298.5 L 267 311.5 L 261.5 334 L 261 330.5 L 266 311.5 L 271.5 297 Z " /><path fill="rgb(186,155,201)" stroke="rgb(186,155,201)" stroke-width="0" opacity="0.39215686274509803" d="M 287.5 298 L 288 299.5 L 284.5 308 L 284 306.5 L 287.5 298 Z " /><path fill="rgb(186,155,201)" stroke="rgb(186,155,201)" stroke-width="0" opacity="0.39215686274509803" d="M 594.5 299 L 595 302.5 L 594 302.5 L 594.5 299 Z " /><path fill="rgb(186,155,201)" stroke="rgb(186,155,201)" stroke-width="0" opacity="0.39215686274509803" d="M 688.5 299 L 689 301.5 L 688 301.5 L 688.5 299 Z " /><path fill="rgb(186,155,201)" stroke="rgb(186,155,201)" stroke-width="0" opacity="0.39215686274509803" d="M 610.5 301 L 611 305.5 L 610 305.5 L 610.5 301 Z " /><path fill="rgb(186,155,201)" stroke="rgb(186,155,201)" stroke-width="0" opacity="0.39215686274509803" d="M 673.5 302 L 675 310.5 L 674 310.5 L 673.5 302 Z " /><path fill="rgb(186,155,201)" stroke="rgb(186,155,201)" stroke-width="0" opacity="0.39215686274509803" d="M 233.5 303 L 234 306.5 L 232.5 311 L 232 307.5 L 233.5 303 Z " /><path fill="rgb(186,155,201)" stroke="rgb(186,155,201)" stroke-width="0" opacity="0.39215686274509803" d="M 689.5 303 L 690 307.5 L 689 307.5 L 689.5 303 Z " /><path fill="rgb(186,155,201)" stroke="rgb(186,155,201)" stroke-width="0" opacity="0.39215686274509803" d="M 217.5 304 L 218 307.5 L 217 307.5 L 217.5 304 Z " /><path fill="rgb(186,155,201)" stroke="rgb(186,155,201)" stroke-width="0" opacity="0.39215686274509803" d="M 595.5 304 L 596 308.5 L 595 308.5 L 595.5 304 Z " /><path fill="rgb(186,155,201)" stroke="rgb(186,155,201)" stroke-width="0" opacity="0.39215686274509803" d="M 611.5 308 L 612 315.5 L 611 315.5 L 611.5 308 Z " /><path fill="rgb(186,155,201)" stroke="rgb(186,155,201)" stroke-width="0" opacity="0.39215686274509803" d="M 216.5 309 L 217 312.5 L 216 312.5 L 216.5 309 Z " /><path fill="rgb(186,155,201)" stroke="rgb(186,155,201)" stroke-width="0" opacity="0.39215686274509803" d="M 690.5 309 L 691 314.5 L 690 314.5 L 690.5 309 Z " /><path fill="rgb(186,155,201)" stroke="rgb(186,155,201)" stroke-width="0" opacity="0.39215686274509803" d="M 596.5 311 L 597 320.5 L 596 320.5 L 596.5 311 Z " /><path fill="rgb(186,155,201)" stroke="rgb(186,155,201)" stroke-width="0" opacity="0.39215686274509803" d="M 231.5 312 L 232 315.5 L 231 315.5 L 231.5 312 Z " /><path fill="rgb(186,155,201)" stroke="rgb(186,155,201)" stroke-width="0" opacity="0.39215686274509803" d="M 282.5 312 L 283 314.5 L 280.5 321 L 280 318.5 L 282.5 312 Z " /><path fill="rgb(186,155,201)" stroke="rgb(186,155,201)" stroke-width="0" opacity="0.39215686274509803" d="M 557.5 312 L 563 325.5 L 562 325.5 L 557.5 312 Z " /><path fill="rgb(186,155,201)" stroke="rgb(186,155,201)" stroke-width="0" opacity="0.39215686274509803" d="M 675.5 312 L 676 316.5 L 675 316.5 L 675.5 312 Z " /><path fill="rgb(186,155,201)" stroke="rgb(186,155,201)" stroke-width="0" opacity="0.39215686274509803" d="M 215.5 314 L 216 317.5 L 215 317.5 L 215.5 314 Z " /><path fill="rgb(186,155,201)" stroke="rgb(186,155,201)" stroke-width="0" opacity="0.39215686274509803" d="M 691.5 316 L 692 324.5 L 691 324.5 L 691.5 316 Z " /><path fill="rgb(186,155,201)" stroke="rgb(186,155,201)" stroke-width="0" opacity="0.39215686274509803" d="M 230.5 317 L 231 320.5 L 230 320.5 L 230.5 317 Z " /><path fill="rgb(186,155,201)" stroke="rgb(186,155,201)" stroke-width="0" opacity="0.39215686274509803" d="M 214.5 319 L 215 322.5 L 214 322.5 L 214.5 319 Z " /><path fill="rgb(186,155,201)" stroke="rgb(186,155,201)" stroke-width="0" opacity="0.39215686274509803" d="M 676.5 319 L 677 329.5 L 676 329.5 L 676.5 319 Z " /><path fill="rgb(186,155,201)" stroke="rgb(186,155,201)" stroke-width="0" opacity="0.39215686274509803" d="M 612.5 320 L 613 337.5 L 612 337.5 L 612.5 320 Z " /><path fill="rgb(186,155,201)" stroke="rgb(186,155,201)" stroke-width="0" opacity="0.39215686274509803" d="M 306.5 321 L 307 324.5 L 305.5 329 L 305 325.5 L 306.5 321 Z " /><path fill="rgb(186,155,201)" stroke="rgb(186,155,201)" stroke-width="0" opacity="0.39215686274509803" d="M 229.5 322 L 230 325.5 L 229 325.5 L 229.5 322 Z " /><path fill="rgb(186,155,201)" stroke="rgb(186,155,201)" stroke-width="0" opacity="0.39215686274509803" d="M 279.5 322 L 280 324.5 L 276.5 337 L 276 333.5 L 279.5 322 Z " /><path fill="rgb(186,155,201)" stroke="rgb(186,155,201)" stroke-width="0" opacity="0.39215686274509803" d="M 213.5 324 L 214 328.5 L 213 328.5 L 213.5 324 Z " /><path fill="rgb(186,155,201)" stroke="rgb(186,155,201)" stroke-width="0" opacity="0.39215686274509803" d="M 321.5 324 L 322 326.5 L 321 326.5 L 321.5 324 Z " /><path fill="rgb(186,155,201)" stroke="rgb(186,155,201)" stroke-width="0" opacity="0.39215686274509803" d="M 356.5 324 L 357 325.5 L 352.5 337 L 352 334.5 L 356.5 324 Z " /><path fill="rgb(186,155,201)" stroke="rgb(186,155,201)" stroke-width="0" opacity="0.39215686274509803" d="M 228.5 327 L 229 331.5 L 228 331.5 L 228.5 327 Z " /><path fill="rgb(186,155,201)" stroke="rgb(186,155,201)" stroke-width="0" opacity="0.39215686274509803" d="M 320.5 328 L 321 331.5 L 320 331.5 L 320.5 328 Z " /><path fill="rgb(186,155,201)" stroke="rgb(186,155,201)" stroke-width="0" opacity="0.39215686274509803" d="M 212.5 330 L 213 333.5 L 212 333.5 L 212.5 330 Z " /><path fill="rgb(186,155,201)" stroke="rgb(186,155,201)" stroke-width="0" opacity="0.39215686274509803" d="M 304.5 330 L 305 335.5 L 304 335.5 L 304.5 330 Z " /><path fill="rgb(186,155,201)" stroke="rgb(186,155,201)" stroke-width="0" opacity="0.39215686274509803" d="M 564.5 330 L 566 335.5 L 565 335.5 L 564.5 330 Z " /><path fill="rgb(186,155,201)" stroke="rgb(186,155,201)" stroke-width="0" opacity="0.39215686274509803" d="M 692.5 330 L 693 342.5 L 692 342.5 L 692.5 330 Z " /><path fill="rgb(186,155,201)" stroke="rgb(186,155,201)" stroke-width="0" opacity="0.39215686274509803" d="M 227.5 333 L 228 336.5 L 227 336.5 L 227.5 333 Z " /><path fill="rgb(186,155,201)" stroke="rgb(186,155,201)" stroke-width="0" opacity="0.39215686274509803" d="M 319.5 333 L 320 337.5 L 319 337.5 L 319.5 333 Z " /><path fill="rgb(186,155,201)" stroke="rgb(186,155,201)" stroke-width="0" opacity="0.39215686274509803" d="M 453.5 334 L 461 334.5 L 453.5 335 L 450 338.5 Q 448.3 346.3 452.5 348 Q 467 350.5 474 360.5 Q 484.7 371.8 483 395.5 L 482 395.5 Q 483.5 367.5 468.5 356 Q 462.6 350.4 452.5 349 L 449 345.5 Q 447.5 337.5 451.5 335 L 453.5 334 Z " /><path fill="rgb(186,155,201)" stroke="rgb(186,155,201)" stroke-width="0" opacity="0.39215686274509803" d="M 211.5 335 L 212 339.5 L 211 339.5 L 211.5 335 Z " /><path fill="rgb(186,155,201)" stroke="rgb(186,155,201)" stroke-width="0" opacity="0.39215686274509803" d="M 260.5 335 L 261 338.5 L 260 338.5 L 260.5 335 Z " /><path fill="rgb(186,155,201)" stroke="rgb(186,155,201)" stroke-width="0" opacity="0.39215686274509803" d="M 465.5 336 Q 478 340 485 349.5 Q 491.8 357.2 495 368.5 L 494 368.5 Q 489.8 353.7 479.5 345 Q 474 339.5 465.5 337 L 465.5 336 Z " /><path fill="rgb(186,155,201)" stroke="rgb(186,155,201)" stroke-width="0" opacity="0.39215686274509803" d="M 596.5 336 L 597 346.5 L 596 346.5 L 596.5 336 Z " /><path fill="rgb(186,155,201)" stroke="rgb(186,155,201)" stroke-width="0" opacity="0.39215686274509803" d="M 303.5 337 L 304 345.5 L 303 345.5 L 303.5 337 Z " /><path fill="rgb(186,155,201)" stroke="rgb(186,155,201)" stroke-width="0" opacity="0.39215686274509803" d="M 550.5 337 L 554 348.5 L 554 352.5 L 553 352.5 L 550.5 337 Z " /><path fill="rgb(186,155,201)" stroke="rgb(186,155,201)" stroke-width="0" opacity="0.39215686274509803" d="M 566.5 337 L 567 339.5 L 566 339.5 L 566.5 337 Z " /><path fill="rgb(186,155,201)" stroke="rgb(186,155,201)" stroke-width="0" opacity="0.39215686274509803" d="M 226.5 338 L 227 342.5 L 226 342.5 L 226.5 338 Z " /><path fill="rgb(186,155,201)" stroke="rgb(186,155,201)" stroke-width="0" opacity="0.39215686274509803" d="M 275.5 338 L 276 341.5 L 275 341.5 L 275.5 338 Z " /><path fill="rgb(186,155,201)" stroke="rgb(186,155,201)" stroke-width="0" opacity="0.39215686274509803" d="M 351.5 338 L 352 341.5 L 351 341.5 L 351.5 338 Z " /><path fill="rgb(186,155,201)" stroke="rgb(186,155,201)" stroke-width="0" opacity="0.39215686274509803" d="M 318.5 339 L 319 350.5 L 318 350.5 L 318.5 339 Z " /><path fill="rgb(186,155,201)" stroke="rgb(186,155,201)" stroke-width="0" opacity="0.39215686274509803" d="M 259.5 340 L 260 343.5 L 259 343.5 L 259.5 340 Z " /><path fill="rgb(186,155,201)" stroke="rgb(186,155,201)" stroke-width="0" opacity="0.39215686274509803" d="M 210.5 341 L 211 345.5 L 210 345.5 L 210.5 341 Z " /><path fill="rgb(186,155,201)" stroke="rgb(186,155,201)" stroke-width="0" opacity="0.39215686274509803" d="M 366.5 341 L 367 343.5 L 366 343.5 L 366.5 341 Z " /><path fill="rgb(186,155,201)" stroke="rgb(186,155,201)" stroke-width="0" opacity="0.39215686274509803" d="M 567.5 341 L 568 343.5 L 567 343.5 L 567.5 341 Z " /><path fill="rgb(186,155,201)" stroke="rgb(186,155,201)" stroke-width="0" opacity="0.39215686274509803" d="M 611.5 342 L 612 351.5 L 611 351.5 L 611.5 342 Z " /><path fill="rgb(186,155,201)" stroke="rgb(186,155,201)" stroke-width="0" opacity="0.39215686274509803" d="M 676.5 342 L 677 353.5 L 676 353.5 L 676.5 342 Z " /><path fill="rgb(186,155,201)" stroke="rgb(186,155,201)" stroke-width="0" opacity="0.39215686274509803" d="M 274.5 343 L 275 346.5 L 274 346.5 L 274.5 343 Z " /><path fill="rgb(186,155,201)" stroke="rgb(186,155,201)" stroke-width="0" opacity="0.39215686274509803" d="M 350.5 343 L 351 347.5 L 350 347.5 L 350.5 343 Z " /><path fill="rgb(186,155,201)" stroke="rgb(186,155,201)" stroke-width="0" opacity="0.39215686274509803" d="M 538.5 343 L 540 349.5 L 539 349.5 L 538.5 343 Z " /><path fill="rgb(186,155,201)" stroke="rgb(186,155,201)" stroke-width="0" opacity="0.39215686274509803" d="M 225.5 344 L 226 348.5 L 225 348.5 L 225.5 344 Z " /><path fill="rgb(186,155,201)" stroke="rgb(186,155,201)" stroke-width="0" opacity="0.39215686274509803" d="M 258.5 345 L 259 348.5 L 258 348.5 L 258.5 345 Z " /><path fill="rgb(186,155,201)" stroke="rgb(186,155,201)" stroke-width="0" opacity="0.39215686274509803" d="M 365.5 345 L 366 349.5 L 365 349.5 L 365.5 345 Z " /><path fill="rgb(186,155,201)" stroke="rgb(186,155,201)" stroke-width="0" opacity="0.39215686274509803" d="M 568.5 345 L 569 348.5 L 568 348.5 L 568.5 345 Z " /><path fill="rgb(186,155,201)" stroke="rgb(186,155,201)" stroke-width="0" opacity="0.39215686274509803" d="M 209.5 347 L 210 351.5 L 209 351.5 L 209.5 347 Z " /><path fill="rgb(186,155,201)" stroke="rgb(186,155,201)" stroke-width="0" opacity="0.39215686274509803" d="M 273.5 348 L 274 351.5 L 273 351.5 L 273.5 348 Z " /><path fill="rgb(186,155,201)" stroke="rgb(186,155,201)" stroke-width="0" opacity="0.39215686274509803" d="M 691.5 348 L 692 356.5 L 691 356.5 L 691.5 348 Z " /><path fill="rgb(186,155,201)" stroke="rgb(186,155,201)" stroke-width="0" opacity="0.39215686274509803" d="M 349.5 349 L 350 367.5 L 349 367.5 L 349.5 349 Z " /><path fill="rgb(186,155,201)" stroke="rgb(186,155,201)" stroke-width="0" opacity="0.39215686274509803" d="M 595.5 349 L 596 355.5 L 595 355.5 L 595.5 349 Z " /><path fill="rgb(186,155,201)" stroke="rgb(186,155,201)" stroke-width="0" opacity="0.39215686274509803" d="M 224.5 350 L 225 354.5 L 224 354.5 L 224.5 350 Z " /><path fill="rgb(186,155,201)" stroke="rgb(186,155,201)" stroke-width="0" opacity="0.39215686274509803" d="M 257.5 350 L 258 354.5 L 257 354.5 L 257.5 350 Z " /><path fill="rgb(186,155,201)" stroke="rgb(186,155,201)" stroke-width="0" opacity="0.39215686274509803" d="M 524.5 350 L 525 352.5 L 524 352.5 L 524.5 350 Z " /><path fill="rgb(186,155,201)" stroke="rgb(186,155,201)" stroke-width="0" opacity="0.39215686274509803" d="M 569.5 350 L 570 355.5 L 569 355.5 L 569.5 350 Z " /><path fill="rgb(186,155,201)" stroke="rgb(186,155,201)" stroke-width="0" opacity="0.39215686274509803" d="M 540.5 351 L 541 354.5 L 540 354.5 L 540.5 351 Z " /><path fill="rgb(186,155,201)" stroke="rgb(186,155,201)" stroke-width="0" opacity="0.39215686274509803" d="M 208.5 353 L 209 357.5 L 208 357.5 L 208.5 353 Z " /><path fill="rgb(186,155,201)" stroke="rgb(186,155,201)" stroke-width="0" opacity="0.39215686274509803" d="M 272.5 353 L 273 358.5 L 272 358.5 L 272.5 353 Z " /><path fill="rgb(186,155,201)" stroke="rgb(186,155,201)" stroke-width="0" opacity="0.39215686274509803" d="M 364.5 353 L 365 363.5 L 364 363.5 L 364.5 353 Z " /><path fill="rgb(186,155,201)" stroke="rgb(186,155,201)" stroke-width="0" opacity="0.39215686274509803" d="M 525.5 354 L 526 357.5 L 525 357.5 L 525.5 354 Z " /><path fill="rgb(186,155,201)" stroke="rgb(186,155,201)" stroke-width="0" opacity="0.39215686274509803" d="M 554.5 354 L 555 358.5 L 554 358.5 L 554.5 354 Z " /><path fill="rgb(186,155,201)" stroke="rgb(186,155,201)" stroke-width="0" opacity="0.39215686274509803" d="M 610.5 354 L 611 359.5 L 610 359.5 L 610.5 354 Z " /><path fill="rgb(186,155,201)" stroke="rgb(186,155,201)" stroke-width="0" opacity="0.39215686274509803" d="M 318.5 355 L 319 366.5 L 318 366.5 L 318.5 355 Z " /><path fill="rgb(186,155,201)" stroke="rgb(186,155,201)" stroke-width="0" opacity="0.39215686274509803" d="M 223.5 356 L 224 360.5 L 223 360.5 L 223.5 356 Z " /><path fill="rgb(186,155,201)" stroke="rgb(186,155,201)" stroke-width="0" opacity="0.39215686274509803" d="M 541.5 356 L 542 361.5 L 541 361.5 L 541.5 356 Z " /><path fill="rgb(186,155,201)" stroke="rgb(186,155,201)" stroke-width="0" opacity="0.39215686274509803" d="M 675.5 356 L 676 362.5 L 675 362.5 L 675.5 356 Z " /><path fill="rgb(186,155,201)" stroke="rgb(186,155,201)" stroke-width="0" opacity="0.39215686274509803" d="M 256.5 357 L 257 362.5 L 256 362.5 L 256.5 357 Z " /><path fill="rgb(186,155,201)" stroke="rgb(186,155,201)" stroke-width="0" opacity="0.39215686274509803" d="M 570.5 357 L 571 363.5 L 570 363.5 L 570.5 357 Z " /><path fill="rgb(186,155,201)" stroke="rgb(186,155,201)" stroke-width="0" opacity="0.39215686274509803" d="M 594.5 358 L 595 362.5 L 594 362.5 L 594.5 358 Z " /><path fill="rgb(186,155,201)" stroke="rgb(186,155,201)" stroke-width="0" opacity="0.39215686274509803" d="M 207.5 359 L 208 363.5 L 207 363.5 L 207.5 359 Z " /><path fill="rgb(186,155,201)" stroke="rgb(186,155,201)" stroke-width="0" opacity="0.39215686274509803" d="M 526.5 359 L 527 365.5 L 526 365.5 L 526.5 359 Z " /><path fill="rgb(186,155,201)" stroke="rgb(186,155,201)" stroke-width="0" opacity="0.39215686274509803" d="M 690.5 359 L 691 365.5 L 690 365.5 L 690.5 359 Z " /><path fill="rgb(186,155,201)" stroke="rgb(186,155,201)" stroke-width="0" opacity="0.39215686274509803" d="M 271.5 360 L 272 365.5 L 271 365.5 L 271.5 360 Z " /><path fill="rgb(186,155,201)" stroke="rgb(186,155,201)" stroke-width="0" opacity="0.39215686274509803" d="M 303.5 360 L 304 368.5 L 303 368.5 L 303.5 360 Z " /><path fill="rgb(186,155,201)" stroke="rgb(186,155,201)" stroke-width="0" opacity="0.39215686274509803" d="M 555.5 360 L 556 367.5 L 555 367.5 L 555.5 360 Z " /><path fill="rgb(186,155,201)" stroke="rgb(186,155,201)" stroke-width="0" opacity="0.39215686274509803" d="M 609.5 361 L 610 366.5 L 609 366.5 L 609.5 361 Z " /><path fill="rgb(186,155,201)" stroke="rgb(186,155,201)" stroke-width="0" opacity="0.39215686274509803" d="M 222.5 362 L 223 366.5 L 222 366.5 L 222.5 362 Z " /><path fill="rgb(186,155,201)" stroke="rgb(186,155,201)" stroke-width="0" opacity="0.39215686274509803" d="M 255.5 364 L 256 371.5 L 255 371.5 L 255.5 364 Z " /><path fill="rgb(186,155,201)" stroke="rgb(186,155,201)" stroke-width="0" opacity="0.39215686274509803" d="M 593.5 364 L 594 368.5 L 593 368.5 L 593.5 364 Z " /><path fill="rgb(186,155,201)" stroke="rgb(186,155,201)" stroke-width="0" opacity="0.39215686274509803" d="M 674.5 364 L 675 368.5 L 674 368.5 L 674.5 364 Z " /><path fill="rgb(186,155,201)" stroke="rgb(186,155,201)" stroke-width="0" opacity="0.39215686274509803" d="M 206.5 365 L 207 370.5 L 206 370.5 L 206.5 365 Z " /><path fill="rgb(186,155,201)" stroke="rgb(186,155,201)" stroke-width="0" opacity="0.39215686274509803" d="M 542.5 365 L 543 377.5 L 542 377.5 L 542.5 365 Z " /><path fill="rgb(186,155,201)" stroke="rgb(186,155,201)" stroke-width="0" opacity="0.39215686274509803" d="M 365.5 366 L 366 371.5 L 365 371.5 L 365.5 366 Z " /><path fill="rgb(186,155,201)" stroke="rgb(186,155,201)" stroke-width="0" opacity="0.39215686274509803" d="M 571.5 366 L 572 396.5 L 571 396.5 L 571.5 366 Z " /><path fill="rgb(186,155,201)" stroke="rgb(186,155,201)" stroke-width="0" opacity="0.39215686274509803" d="M 270.5 367 L 271 375.5 L 270 375.5 L 270.5 367 Z " /><path fill="rgb(186,155,201)" stroke="rgb(186,155,201)" stroke-width="0" opacity="0.39215686274509803" d="M 689.5 367 L 690 371.5 L 689 371.5 L 689.5 367 Z " /><path fill="rgb(186,155,201)" stroke="rgb(186,155,201)" stroke-width="0" opacity="0.39215686274509803" d="M 319.5 368 L 320 372.5 L 319 372.5 L 319.5 368 Z " /><path fill="rgb(186,155,201)" stroke="rgb(186,155,201)" stroke-width="0" opacity="0.39215686274509803" d="M 608.5 368 L 609 372.5 L 608 372.5 L 608.5 368 Z " /><path fill="rgb(186,155,201)" stroke="rgb(186,155,201)" stroke-width="0" opacity="0.39215686274509803" d="M 221.5 369 L 222 373.5 L 221 373.5 L 221.5 369 Z " /><path fill="rgb(186,155,201)" stroke="rgb(186,155,201)" stroke-width="0" opacity="0.39215686274509803" d="M 350.5 370 L 351 374.5 L 350 374.5 L 350.5 370 Z " /><path fill="rgb(186,155,201)" stroke="rgb(186,155,201)" stroke-width="0" opacity="0.39215686274509803" d="M 495.5 370 L 497 376.5 L 496 376.5 L 495.5 370 Z " /><path fill="rgb(186,155,201)" stroke="rgb(186,155,201)" stroke-width="0" opacity="0.39215686274509803" d="M 556.5 370 L 557 392.5 L 556 392.5 L 556.5 370 Z " /><path fill="rgb(186,155,201)" stroke="rgb(186,155,201)" stroke-width="0" opacity="0.39215686274509803" d="M 592.5 370 L 593 374.5 L 589.5 389 L 589 385.5 L 592.5 370 Z " /><path fill="rgb(186,155,201)" stroke="rgb(186,155,201)" stroke-width="0" opacity="0.39215686274509803" d="M 673.5 370 L 674 374.5 L 673 374.5 L 673.5 370 Z " /><path fill="rgb(186,155,201)" stroke="rgb(186,155,201)" stroke-width="0" opacity="0.39215686274509803" d="M 304.5 371 L 305 375.5 L 304 375.5 L 304.5 371 Z " /><path fill="rgb(186,155,201)" stroke="rgb(186,155,201)" stroke-width="0" opacity="0.39215686274509803" d="M 205.5 373 L 206 379.5 L 205 379.5 L 205.5 373 Z " /><path fill="rgb(186,155,201)" stroke="rgb(186,155,201)" stroke-width="0" opacity="0.39215686274509803" d="M 366.5 373 L 368 379.5 L 367 379.5 L 366.5 373 Z " /><path fill="rgb(186,155,201)" stroke="rgb(186,155,201)" stroke-width="0" opacity="0.39215686274509803" d="M 688.5 373 L 689 377.5 L 688 377.5 L 688.5 373 Z " /><path fill="rgb(186,155,201)" stroke="rgb(186,155,201)" stroke-width="0" opacity="0.39215686274509803" d="M 254.5 374 L 255 404.5 L 254 404.5 L 254.5 374 Z " /><path fill="rgb(186,155,201)" stroke="rgb(186,155,201)" stroke-width="0" opacity="0.39215686274509803" d="M 320.5 374 L 321 377.5 L 320 377.5 L 320.5 374 Z " /><path fill="rgb(186,155,201)" stroke="rgb(186,155,201)" stroke-width="0" opacity="0.39215686274509803" d="M 607.5 374 L 608 377.5 L 607 377.5 L 607.5 374 Z " /><path fill="rgb(186,155,201)" stroke="rgb(186,155,201)" stroke-width="0" opacity="0.39215686274509803" d="M 220.5 376 L 221 382.5 L 220 382.5 L 220.5 376 Z " /><path fill="rgb(186,155,201)" stroke="rgb(186,155,201)" stroke-width="0" opacity="0.39215686274509803" d="M 351.5 376 Q 358.3 408.7 379.5 427 Q 392.7 439.3 413 444.5 L 410.5 445 Q 385.6 437.4 371 419.5 L 358 399.5 L 352 383.5 L 351.5 376 Z " /><path fill="rgb(186,155,201)" stroke="rgb(186,155,201)" stroke-width="0" opacity="0.39215686274509803" d="M 672.5 376 L 673 379.5 L 672 379.5 L 672.5 376 Z " /><path fill="rgb(186,155,201)" stroke="rgb(186,155,201)" stroke-width="0" opacity="0.39215686274509803" d="M 305.5 377 L 309 392.5 L 308 392.5 L 305 381.5 L 305.5 377 Z " /><path fill="rgb(186,155,201)" stroke="rgb(186,155,201)" stroke-width="0" opacity="0.39215686274509803" d="M 526.5 377 L 527 383.5 L 526 383.5 L 526.5 377 Z " /><path fill="rgb(186,155,201)" stroke="rgb(186,155,201)" stroke-width="0" opacity="0.39215686274509803" d="M 497.5 378 L 498 385.5 L 497 385.5 L 497.5 378 Z " /><path fill="rgb(186,155,201)" stroke="rgb(186,155,201)" stroke-width="0" opacity="0.39215686274509803" d="M 269.5 379 L 270 400.5 L 269 400.5 L 269.5 379 Z " /><path fill="rgb(186,155,201)" stroke="rgb(186,155,201)" stroke-width="0" opacity="0.39215686274509803" d="M 321.5 379 L 323 385.5 L 322 385.5 L 321.5 379 Z " /><path fill="rgb(186,155,201)" stroke="rgb(186,155,201)" stroke-width="0" opacity="0.39215686274509803" d="M 606.5 379 L 607 382.5 L 606 382.5 L 606.5 379 Z " /><path fill="rgb(186,155,201)" stroke="rgb(186,155,201)" stroke-width="0" opacity="0.39215686274509803" d="M 687.5 379 L 688 382.5 L 687 382.5 L 687.5 379 Z " /><path fill="rgb(186,155,201)" stroke="rgb(186,155,201)" stroke-width="0" opacity="0.39215686274509803" d="M 368.5 381 L 370 385.5 L 369 385.5 L 368.5 381 Z " /><path fill="rgb(186,155,201)" stroke="rgb(186,155,201)" stroke-width="0" opacity="0.39215686274509803" d="M 541.5 381 L 542 386.5 L 541 386.5 L 541.5 381 Z " /><path fill="rgb(186,155,201)" stroke="rgb(186,155,201)" stroke-width="0" opacity="0.39215686274509803" d="M 671.5 381 L 672 383.5 L 671 383.5 L 671.5 381 Z " /><path fill="rgb(186,155,201)" stroke="rgb(186,155,201)" stroke-width="0" opacity="0.39215686274509803" d="M 204.5 382 L 205 391.5 L 204 391.5 L 204.5 382 Z " /><path fill="rgb(186,155,201)" stroke="rgb(186,155,201)" stroke-width="0" opacity="0.39215686274509803" d="M 605.5 384 L 606 387.5 L 605 387.5 L 605.5 384 Z " /><path fill="rgb(186,155,201)" stroke="rgb(186,155,201)" stroke-width="0" opacity="0.39215686274509803" d="M 686.5 384 L 687 387.5 L 685.5 392 L 685 388.5 L 686.5 384 Z " /><path fill="rgb(186,155,201)" stroke="rgb(186,155,201)" stroke-width="0" opacity="0.39215686274509803" d="M 219.5 385 L 220 397.5 L 219 397.5 L 219.5 385 Z " /><path fill="rgb(186,155,201)" stroke="rgb(186,155,201)" stroke-width="0" opacity="0.39215686274509803" d="M 525.5 385 L 526 389.5 Q 516.3 426.8 489.5 447 Q 478.5 456 463.5 461 L 463.5 460 Q 488.7 450.7 504 431.5 Q 513.8 420.2 520 405.5 L 525.5 385 Z " /><path fill="rgb(186,155,201)" stroke="rgb(186,155,201)" stroke-width="0" opacity="0.39215686274509803" d="M 670.5 385 L 671 388.5 L 668.5 396 L 668 393.5 L 670.5 385 Z " /><path fill="rgb(186,155,201)" stroke="rgb(186,155,201)" stroke-width="0" opacity="0.39215686274509803" d="M 323.5 387 L 326 394.5 L 325 394.5 L 323.5 387 Z " /><path fill="rgb(186,155,201)" stroke="rgb(186,155,201)" stroke-width="0" opacity="0.39215686274509803" d="M 370.5 387 Q 377.4 404.6 390.5 416 Q 400.4 425.6 416 429.5 L 413.5 430 Q 393.8 423.2 382 408.5 Q 373.8 399.3 370.5 387 Z " /><path fill="rgb(186,155,201)" stroke="rgb(186,155,201)" stroke-width="0" opacity="0.39215686274509803" d="M 540.5 388 L 541 392.5 L 538.5 400 L 538 397.5 L 540.5 388 Z " /><path fill="rgb(186,155,201)" stroke="rgb(186,155,201)" stroke-width="0" opacity="0.39215686274509803" d="M 604.5 389 L 605 392.5 L 603.5 397 L 603 393.5 L 604.5 389 Z " /><path fill="rgb(186,155,201)" stroke="rgb(186,155,201)" stroke-width="0" opacity="0.39215686274509803" d="M 588.5 390 L 589 393.5 L 587.5 398 L 587 394.5 L 588.5 390 Z " /><path fill="rgb(186,155,201)" stroke="rgb(186,155,201)" stroke-width="0" opacity="0.39215686274509803" d="M 497.5 392 L 498 398.5 L 497 398.5 L 497.5 392 Z " /><path fill="rgb(186,155,201)" stroke="rgb(186,155,201)" stroke-width="0" opacity="0.39215686274509803" d="M 684.5 393 L 685 395.5 L 684 395.5 L 684.5 393 Z " /><path fill="rgb(186,155,201)" stroke="rgb(186,155,201)" stroke-width="0" opacity="0.39215686274509803" d="M 326.5 396 Q 335.9 420.6 353.5 437 Q 371.7 454.8 400 462.5 L 397.5 463 Q 365.5 453 346 430.5 Q 332.1 416.1 326.5 396 Z " /><path fill="rgb(186,155,201)" stroke="rgb(186,155,201)" stroke-width="0" opacity="0.39215686274509803" d="M 555.5 396 L 556 403.5 L 555 403.5 L 555.5 396 Z " /><path fill="rgb(186,155,201)" stroke="rgb(186,155,201)" stroke-width="0" opacity="0.39215686274509803" d="M 203.5 397 L 204 405.5 L 203 405.5 L 203.5 397 Z " /><path fill="rgb(186,155,201)" stroke="rgb(186,155,201)" stroke-width="0" opacity="0.39215686274509803" d="M 310.5 397 Q 323 432.5 349.5 454 Q 367.3 469.2 393 476.5 L 390.5 477 Q 357.7 466.3 337 443.5 Q 318.4 424.5 310.5 397 Z " /><path fill="rgb(186,155,201)" stroke="rgb(186,155,201)" stroke-width="0" opacity="0.39215686274509803" d="M 481.5 397 L 482 399.5 L 481 399.5 L 481.5 397 Z " /><path fill="rgb(186,155,201)" stroke="rgb(186,155,201)" stroke-width="0" opacity="0.39215686274509803" d="M 667.5 397 L 668 399.5 L 666.5 403 L 666 400.5 L 667.5 397 Z " /><path fill="rgb(186,155,201)" stroke="rgb(186,155,201)" stroke-width="0" opacity="0.39215686274509803" d="M 683.5 397 L 684 399.5 L 680.5 410 L 680 407.5 L 683.5 397 Z " /><path fill="rgb(186,155,201)" stroke="rgb(186,155,201)" stroke-width="0" opacity="0.39215686274509803" d="M 602.5 398 L 603 400.5 L 602 400.5 L 602.5 398 Z " /><path fill="rgb(186,155,201)" stroke="rgb(186,155,201)" stroke-width="0" opacity="0.39215686274509803" d="M 570.5 399 L 571 406.5 L 570 406.5 L 570.5 399 Z " /><path fill="rgb(186,155,201)" stroke="rgb(186,155,201)" stroke-width="0" opacity="0.39215686274509803" d="M 586.5 399 L 587 401.5 L 586 401.5 L 586.5 399 Z " /><path fill="rgb(186,155,201)" stroke="rgb(186,155,201)" stroke-width="0" opacity="0.39215686274509803" d="M 496.5 400 L 497 403.5 Q 492.4 419.4 481.5 429 Q 474.5 436 464.5 440 L 464.5 439 Q 478.4 432.9 487 421.5 Q 494.2 413.2 496.5 400 Z " /><path fill="rgb(186,155,201)" stroke="rgb(186,155,201)" stroke-width="0" opacity="0.39215686274509803" d="M 480.5 401 L 481 402.5 Q 477.1 412.6 469.5 419 Q 461.8 425.8 450.5 429 L 450.5 428 Q 467.2 423.2 476 410.5 L 480.5 401 Z " /><path fill="rgb(186,155,201)" stroke="rgb(186,155,201)" stroke-width="0" opacity="0.39215686274509803" d="M 537.5 401 L 538 403.5 L 535.5 409 L 535 407.5 L 537.5 401 Z " /><path fill="rgb(186,155,201)" stroke="rgb(186,155,201)" stroke-width="0" opacity="0.39215686274509803" d="M 601.5 402 L 602 404.5 L 601 404.5 L 601.5 402 Z " /><path fill="rgb(186,155,201)" stroke="rgb(186,155,201)" stroke-width="0" opacity="0.39215686274509803" d="M 585.5 403 L 586 405.5 L 585 405.5 L 585.5 403 Z " /><path fill="rgb(186,155,201)" stroke="rgb(186,155,201)" stroke-width="0" opacity="0.39215686274509803" d="M 270.5 404 L 271 410.5 L 270 410.5 L 270.5 404 Z " /><path fill="rgb(186,155,201)" stroke="rgb(186,155,201)" stroke-width="0" opacity="0.39215686274509803" d="M 665.5 404 L 666 406.5 L 660.5 421 L 660 419.5 L 665.5 404 Z " /><path fill="rgb(186,155,201)" stroke="rgb(186,155,201)" stroke-width="0" opacity="0.39215686274509803" d="M 554.5 405 L 555 409.5 L 554 409.5 L 554.5 405 Z " /><path fill="rgb(186,155,201)" stroke="rgb(186,155,201)" stroke-width="0" opacity="0.39215686274509803" d="M 219.5 406 L 220 416.5 L 219 416.5 L 219.5 406 Z " /><path fill="rgb(186,155,201)" stroke="rgb(186,155,201)" stroke-width="0" opacity="0.39215686274509803" d="M 600.5 406 L 601 408.5 L 600 408.5 L 600.5 406 Z " /><path fill="rgb(186,155,201)" stroke="rgb(186,155,201)" stroke-width="0" opacity="0.39215686274509803" d="M 255.5 407 L 256 413.5 L 255 413.5 L 255.5 407 Z " /><path fill="rgb(186,155,201)" stroke="rgb(186,155,201)" stroke-width="0" opacity="0.39215686274509803" d="M 584.5 407 L 585 409.5 L 584 409.5 L 584.5 407 Z " /><path fill="rgb(186,155,201)" stroke="rgb(186,155,201)" stroke-width="0" opacity="0.39215686274509803" d="M 569.5 408 L 570 412.5 L 569 412.5 L 569.5 408 Z " /><path fill="rgb(186,155,201)" stroke="rgb(186,155,201)" stroke-width="0" opacity="0.39215686274509803" d="M 534.5 410 L 535 411.5 L 532.5 416 L 532 414.5 L 534.5 410 Z " /><path fill="rgb(186,155,201)" stroke="rgb(186,155,201)" stroke-width="0" opacity="0.39215686274509803" d="M 599.5 410 L 600 412.5 L 599 412.5 L 599.5 410 Z " /><path fill="rgb(186,155,201)" stroke="rgb(186,155,201)" stroke-width="0" opacity="0.39215686274509803" d="M 204.5 411 L 205 419.5 L 204 419.5 L 204.5 411 Z " /><path fill="rgb(186,155,201)" stroke="rgb(186,155,201)" stroke-width="0" opacity="0.39215686274509803" d="M 553.5 411 L 554 415.5 L 552.5 420 L 552 416.5 L 553.5 411 Z " /><path fill="rgb(186,155,201)" stroke="rgb(186,155,201)" stroke-width="0" opacity="0.39215686274509803" d="M 583.5 411 L 584 413.5 L 582.5 417 L 582 414.5 L 583.5 411 Z " /><path fill="rgb(186,155,201)" stroke="rgb(186,155,201)" stroke-width="0" opacity="0.39215686274509803" d="M 679.5 411 L 680 413.5 L 675.5 425 L 675 423.5 L 679.5 411 Z " /><path fill="rgb(186,155,201)" stroke="rgb(186,155,201)" stroke-width="0" opacity="0.39215686274509803" d="M 271.5 412 L 272 415.5 L 271 415.5 L 271.5 412 Z " /><path fill="rgb(186,155,201)" stroke="rgb(186,155,201)" stroke-width="0" opacity="0.39215686274509803" d="M 568.5 414 L 569 418.5 L 568 418.5 L 568.5 414 Z " /><path fill="rgb(186,155,201)" stroke="rgb(186,155,201)" stroke-width="0" opacity="0.39215686274509803" d="M 598.5 414 L 599 416.5 L 598 416.5 L 598.5 414 Z " /><path fill="rgb(186,155,201)" stroke="rgb(186,155,201)" stroke-width="0" opacity="0.39215686274509803" d="M 256.5 415 L 257 418.5 L 256 418.5 L 256.5 415 Z " /><path fill="rgb(186,155,201)" stroke="rgb(186,155,201)" stroke-width="0" opacity="0.39215686274509803" d="M 272.5 417 L 274 423.5 L 273 423.5 L 272.5 417 Z " /><path fill="rgb(186,155,201)" stroke="rgb(186,155,201)" stroke-width="0" opacity="0.39215686274509803" d="M 531.5 417 L 532 418.5 Q 520.5 441.5 501.5 457 Q 489.3 467.8 472.5 474 L 472.5 473 Q 499.2 462.2 516 441.5 L 531.5 417 Z " /><path fill="rgb(186,155,201)" stroke="rgb(186,155,201)" stroke-width="0" opacity="0.39215686274509803" d="M 581.5 418 L 582 420.5 L 580.5 424 L 580 421.5 L 581.5 418 Z " /><path fill="rgb(186,155,201)" stroke="rgb(186,155,201)" stroke-width="0" opacity="0.39215686274509803" d="M 597.5 418 L 598 420.5 L 596.5 424 L 596 421.5 L 597.5 418 Z " /><path fill="rgb(186,155,201)" stroke="rgb(186,155,201)" stroke-width="0" opacity="0.39215686274509803" d="M 220.5 419 L 222 427.5 L 221 427.5 L 220.5 419 Z " /><path fill="rgb(186,155,201)" stroke="rgb(186,155,201)" stroke-width="0" opacity="0.39215686274509803" d="M 257.5 420 Q 266.1 457.9 292.5 478 Q 313.8 495.2 341 506.5 L 339.5 507 Q 306.1 492.9 282 469.5 Q 270.6 457.4 263 441.5 L 258 427.5 L 257.5 420 Z " /><path fill="rgb(186,155,201)" stroke="rgb(186,155,201)" stroke-width="0" opacity="0.39215686274509803" d="M 567.5 420 L 568 423.5 L 566.5 428 L 566 424.5 L 567.5 420 Z " /><path fill="rgb(186,155,201)" stroke="rgb(186,155,201)" stroke-width="0" opacity="0.39215686274509803" d="M 205.5 421 L 206 425.5 L 205 425.5 L 205.5 421 Z " /><path fill="rgb(186,155,201)" stroke="rgb(186,155,201)" stroke-width="0" opacity="0.39215686274509803" d="M 551.5 421 L 552 424.5 L 550.5 428 L 550 425.5 L 551.5 421 Z " /><path fill="rgb(186,155,201)" stroke="rgb(186,155,201)" stroke-width="0" opacity="0.39215686274509803" d="M 659.5 422 L 660 423.5 Q 633.4 498.9 580.5 548 Q 558.5 568.5 528.5 581 L 528.5 580 Q 546.6 572.6 561.5 562 Q 580.5 548.5 596 531.5 Q 637.1 486.1 659.5 422 Z " /><path fill="rgb(186,155,201)" stroke="rgb(186,155,201)" stroke-width="0" opacity="0.39215686274509803" d="M 274.5 425 L 276 429.5 L 275 429.5 L 274.5 425 Z " /><path fill="rgb(186,155,201)" stroke="rgb(186,155,201)" stroke-width="0" opacity="0.39215686274509803" d="M 579.5 425 L 580 427.5 L 570.5 453 L 570 451.5 L 579.5 425 Z " /><path fill="rgb(186,155,201)" stroke="rgb(186,155,201)" stroke-width="0" opacity="0.39215686274509803" d="M 595.5 425 L 596 427.5 L 593.5 434 L 593 431.5 L 595.5 425 Z " /><path fill="rgb(186,155,201)" stroke="rgb(186,155,201)" stroke-width="0" opacity="0.39215686274509803" d="M 674.5 426 L 675 427.5 L 662.5 457 L 662 455.5 L 674.5 426 Z " /><path fill="rgb(186,155,201)" stroke="rgb(186,155,201)" stroke-width="0" opacity="0.39215686274509803" d="M 206.5 427 L 209 437.5 L 208 437.5 L 206.5 427 Z " /><path fill="rgb(186,155,201)" stroke="rgb(186,155,201)" stroke-width="0" opacity="0.39215686274509803" d="M 222.5 429 L 226 439.5 L 225 439.5 L 222 431.5 L 222.5 429 Z " /><path fill="rgb(186,155,201)" stroke="rgb(186,155,201)" stroke-width="0" opacity="0.39215686274509803" d="M 446.5 429 L 449 429.5 L 442.5 431 L 442.5 430 L 446.5 429 Z " /><path fill="rgb(186,155,201)" stroke="rgb(186,155,201)" stroke-width="0" opacity="0.39215686274509803" d="M 549.5 429 L 550 431.5 L 548.5 435 L 548 432.5 L 549.5 429 Z " /><path fill="rgb(186,155,201)" stroke="rgb(186,155,201)" stroke-width="0" opacity="0.39215686274509803" d="M 565.5 429 L 566 431.5 L 558.5 453 L 558 451.5 L 565.5 429 Z " /><path fill="rgb(186,155,201)" stroke="rgb(186,155,201)" stroke-width="0" opacity="0.39215686274509803" d="M 417.5 430 L 421 430.5 L 417.5 431 L 417.5 430 Z " /><path fill="rgb(186,155,201)" stroke="rgb(186,155,201)" stroke-width="0" opacity="0.39215686274509803" d="M 276.5 431 Q 283.4 449.1 296.5 461 Q 315.6 478.4 341 489.5 L 339.5 490 L 308.5 472 L 290 455.5 L 279 439.5 L 276.5 431 Z " /><path fill="rgb(186,155,201)" stroke="rgb(186,155,201)" stroke-width="0" opacity="0.39215686274509803" d="M 422.5 431 L 441 431.5 L 422.5 432 L 422.5 431 Z " /><path fill="rgb(186,155,201)" stroke="rgb(186,155,201)" stroke-width="0" opacity="0.39215686274509803" d="M 591.5 438 L 592 440.5 L 590.5 443 L 590 441.5 L 591.5 438 Z " /><path fill="rgb(186,155,201)" stroke="rgb(186,155,201)" stroke-width="0" opacity="0.39215686274509803" d="M 461.5 440 L 463 440.5 Q 456 445.5 444.5 446 L 444.5 445 Q 455.2 444.7 461.5 440 Z " /><path fill="rgb(186,155,201)" stroke="rgb(186,155,201)" stroke-width="0" opacity="0.39215686274509803" d="M 226.5 441 Q 237.3 464.2 256.5 479 Q 304.5 519 366 545.5 L 364.5 546 Q 290.7 514.3 238 461.5 L 229 448.5 L 226.5 441 Z " /><path fill="rgb(186,155,201)" stroke="rgb(186,155,201)" stroke-width="0" opacity="0.39215686274509803" d="M 210.5 442 Q 221.8 471.2 244.5 489 Q 278.5 517.5 318.5 540 Q 347.8 557.7 385 567.5 L 382.5 568 Q 360.5 562 341.5 553 L 306.5 534 L 256.5 500 L 227 472.5 Q 215.3 459.8 210.5 442 Z " /><path fill="rgb(186,155,201)" stroke="rgb(186,155,201)" stroke-width="0" opacity="0.39215686274509803" d="M 545.5 442 L 546 443.5 L 543.5 449 L 543 447.5 L 545.5 442 Z " /><path fill="rgb(186,155,201)" stroke="rgb(186,155,201)" stroke-width="0" opacity="0.39215686274509803" d="M 414.5 445 L 418 445.5 L 414.5 446 L 414.5 445 Z " /><path fill="rgb(186,155,201)" stroke="rgb(186,155,201)" stroke-width="0" opacity="0.39215686274509803" d="M 419.5 446 L 426 446.5 L 419.5 447 L 419.5 446 Z " /><path fill="rgb(186,155,201)" stroke="rgb(186,155,201)" stroke-width="0" opacity="0.39215686274509803" d="M 436.5 446 L 443 446.5 L 436.5 447 L 436.5 446 Z " /><path fill="rgb(186,155,201)" stroke="rgb(186,155,201)" stroke-width="0" opacity="0.39215686274509803" d="M 588.5 447 L 589 448.5 L 586.5 454 L 586 452.5 L 588.5 447 Z " /><path fill="rgb(186,155,201)" stroke="rgb(186,155,201)" stroke-width="0" opacity="0.39215686274509803" d="M 542.5 450 L 543 451.5 Q 530.1 483.6 505.5 504 L 485.5 516 L 474.5 519 L 474.5 518 Q 504.1 510.1 520 488.5 Q 533.9 471.9 542.5 450 Z " /><path fill="rgb(186,155,201)" stroke="rgb(186,155,201)" stroke-width="0" opacity="0.39215686274509803" d="M 557.5 454 L 558 455.5 Q 544 492 516.5 515 Q 502.1 527.1 481.5 533 L 481.5 532 Q 494.1 529.1 503.5 523 Q 520 513 532 498.5 Q 547.8 479.3 557.5 454 Z " /><path fill="rgb(186,155,201)" stroke="rgb(186,155,201)" stroke-width="0" opacity="0.39215686274509803" d="M 569.5 454 L 570 455.5 Q 553.5 497 523.5 525 Q 503.5 545 472.5 554 L 472.5 553 Q 513.4 539.9 537 509.5 Q 557.1 485.6 569.5 454 Z " /><path fill="rgb(186,155,201)" stroke="rgb(186,155,201)" stroke-width="0" opacity="0.39215686274509803" d="M 585.5 455 L 586 456.5 Q 568.5 502.5 536.5 534 Q 522.6 547.1 505.5 557 Q 489.4 566.9 467.5 571 L 467.5 570 Q 492.8 565.3 510.5 553 Q 532.1 539.6 548 520.5 Q 571.6 492.6 585.5 455 Z " /><path fill="rgb(186,155,201)" stroke="rgb(186,155,201)" stroke-width="0" opacity="0.39215686274509803" d="M 661.5 458 L 662 459.5 Q 636.1 517.6 592.5 558 Q 571.1 577.6 543.5 591 L 543.5 590 Q 580.1 572.1 606 543.5 Q 640 507 661.5 458 Z " /><path fill="rgb(186,155,201)" stroke="rgb(186,155,201)" stroke-width="0" opacity="0.39215686274509803" d="M 456.5 462 L 459 462.5 L 448.5 465 L 448.5 464 L 456.5 462 Z " /><path fill="rgb(186,155,201)" stroke="rgb(186,155,201)" stroke-width="0" opacity="0.39215686274509803" d="M 401.5 463 L 404 463.5 L 401.5 464 L 401.5 463 Z " /><path fill="rgb(186,155,201)" stroke="rgb(186,155,201)" stroke-width="0" opacity="0.39215686274509803" d="M 405.5 464 L 409 464.5 L 405.5 465 L 405.5 464 Z " /><path fill="rgb(186,155,201)" stroke="rgb(186,155,201)" stroke-width="0" opacity="0.39215686274509803" d="M 410.5 465 L 415 465.5 L 410.5 466 L 410.5 465 Z " /><path fill="rgb(186,155,201)" stroke="rgb(186,155,201)" stroke-width="0" opacity="0.39215686274509803" d="M 442.5 465 L 447 465.5 L 442.5 466 L 442.5 465 Z " /><path fill="rgb(186,155,201)" stroke="rgb(186,155,201)" stroke-width="0" opacity="0.39215686274509803" d="M 417.5 466 L 440 466.5 L 417.5 467 L 417.5 466 Z " /><path fill="rgb(186,155,201)" stroke="rgb(186,155,201)" stroke-width="0" opacity="0.39215686274509803" d="M 469.5 474 L 471 474.5 L 460.5 478 L 460.5 477 L 469.5 474 Z " /><path fill="rgb(186,155,201)" stroke="rgb(186,155,201)" stroke-width="0" opacity="0.39215686274509803" d="M 394.5 477 L 401 478.5 L 397.5 479 L 394.5 478 L 394.5 477 Z " /><path fill="rgb(186,155,201)" stroke="rgb(186,155,201)" stroke-width="0" opacity="0.39215686274509803" d="M 456.5 478 L 459 478.5 L 456.5 479 L 456.5 478 Z " /><path fill="rgb(186,155,201)" stroke="rgb(186,155,201)" stroke-width="0" opacity="0.39215686274509803" d="M 402.5 479 L 406 479.5 L 402.5 480 L 402.5 479 Z " /><path fill="rgb(186,155,201)" stroke="rgb(186,155,201)" stroke-width="0" opacity="0.39215686274509803" d="M 451.5 479 L 455 479.5 L 451.5 480 L 451.5 479 Z " /><path fill="rgb(186,155,201)" stroke="rgb(186,155,201)" stroke-width="0" opacity="0.39215686274509803" d="M 407.5 480 L 412 480.5 L 407.5 481 L 407.5 480 Z " /><path fill="rgb(186,155,201)" stroke="rgb(186,155,201)" stroke-width="0" opacity="0.39215686274509803" d="M 445.5 480 L 450 480.5 L 445.5 481 L 445.5 480 Z " /><path fill="rgb(186,155,201)" stroke="rgb(186,155,201)" stroke-width="0" opacity="0.39215686274509803" d="M 414.5 481 L 424 481.5 L 414.5 482 L 414.5 481 Z " /><path fill="rgb(186,155,201)" stroke="rgb(186,155,201)" stroke-width="0" opacity="0.39215686274509803" d="M 433.5 481 L 443 481.5 L 433.5 482 L 433.5 481 Z " /><path fill="rgb(186,155,201)" stroke="rgb(186,155,201)" stroke-width="0" opacity="0.39215686274509803" d="M 342.5 490 L 370 502.5 L 368.5 503 L 342.5 491 L 342.5 490 Z " /><path fill="rgb(186,155,201)" stroke="rgb(186,155,201)" stroke-width="0" opacity="0.39215686274509803" d="M 371.5 503 L 375 504.5 L 373.5 505 L 371.5 503 Z " /><path fill="rgb(186,155,201)" stroke="rgb(186,155,201)" stroke-width="0" opacity="0.39215686274509803" d="M 376.5 505 L 404 514.5 L 401.5 515 L 378.5 507 L 376.5 505 Z " /><path fill="rgb(186,155,201)" stroke="rgb(186,155,201)" stroke-width="0" opacity="0.39215686274509803" d="M 342.5 507 L 359 514.5 L 357.5 515 L 342.5 508 L 342.5 507 Z " /><path fill="rgb(186,155,201)" stroke="rgb(186,155,201)" stroke-width="0" opacity="0.39215686274509803" d="M 360.5 515 L 379 522.5 L 377.5 523 L 360.5 516 L 360.5 515 Z " /><path fill="rgb(186,155,201)" stroke="rgb(186,155,201)" stroke-width="0" opacity="0.39215686274509803" d="M 405.5 515 L 420 518.5 L 416.5 519 L 405.5 516 L 405.5 515 Z " /><path fill="rgb(186,155,201)" stroke="rgb(186,155,201)" stroke-width="0" opacity="0.39215686274509803" d="M 421.5 519 L 426 519.5 L 421.5 520 L 421.5 519 Z " /><path fill="rgb(186,155,201)" stroke="rgb(186,155,201)" stroke-width="0" opacity="0.39215686274509803" d="M 470.5 519 L 473 519.5 L 470.5 520 L 470.5 519 Z " /><path fill="rgb(186,155,201)" stroke="rgb(186,155,201)" stroke-width="0" opacity="0.39215686274509803" d="M 427.5 520 L 432 520.5 L 427.5 521 L 427.5 520 Z " /><path fill="rgb(186,155,201)" stroke="rgb(186,155,201)" stroke-width="0" opacity="0.39215686274509803" d="M 464.5 520 L 469 520.5 L 464.5 521 L 464.5 520 Z " /><path fill="rgb(186,155,201)" stroke="rgb(186,155,201)" stroke-width="0" opacity="0.39215686274509803" d="M 434.5 521 L 444 521.5 L 434.5 522 L 434.5 521 Z " /><path fill="rgb(186,155,201)" stroke="rgb(186,155,201)" stroke-width="0" opacity="0.39215686274509803" d="M 454.5 521 L 463 521.5 L 454.5 522 L 454.5 521 Z " /><path fill="rgb(186,155,201)" stroke="rgb(186,155,201)" stroke-width="0" opacity="0.39215686274509803" d="M 380.5 523 L 397 528.5 L 394.5 529 L 382.5 525 L 380.5 523 Z " /><path fill="rgb(186,155,201)" stroke="rgb(186,155,201)" stroke-width="0" opacity="0.39215686274509803" d="M 398.5 529 L 408 531.5 L 405.5 532 L 398.5 530 L 398.5 529 Z " /><path fill="rgb(186,155,201)" stroke="rgb(186,155,201)" stroke-width="0" opacity="0.39215686274509803" d="M 409.5 532 L 423 534.5 L 418.5 535 L 409.5 533 L 409.5 532 Z " /><path fill="rgb(186,155,201)" stroke="rgb(186,155,201)" stroke-width="0" opacity="0.39215686274509803" d="M 477.5 533 L 480 533.5 L 477.5 534 L 477.5 533 Z " /><path fill="rgb(186,155,201)" stroke="rgb(186,155,201)" stroke-width="0" opacity="0.39215686274509803" d="M 472.5 534 L 476 534.5 L 472.5 535 L 472.5 534 Z " /><path fill="rgb(186,155,201)" stroke="rgb(186,155,201)" stroke-width="0" opacity="0.39215686274509803" d="M 424.5 535 L 430 535.5 L 424.5 536 L 424.5 535 Z " /><path fill="rgb(186,155,201)" stroke="rgb(186,155,201)" stroke-width="0" opacity="0.39215686274509803" d="M 466.5 535 L 471 535.5 L 466.5 536 L 466.5 535 Z " /><path fill="rgb(186,155,201)" stroke="rgb(186,155,201)" stroke-width="0" opacity="0.39215686274509803" d="M 432.5 536 L 441 536.5 L 432.5 537 L 432.5 536 Z " /><path fill="rgb(186,155,201)" stroke="rgb(186,155,201)" stroke-width="0" opacity="0.39215686274509803" d="M 456.5 536 L 465 536.5 L 456.5 537 L 456.5 536 Z " /><path fill="rgb(186,155,201)" stroke="rgb(186,155,201)" stroke-width="0" opacity="0.39215686274509803" d="M 367.5 546 L 384 551.5 L 381.5 552 L 369.5 548 L 367.5 546 Z " /><path fill="rgb(186,155,201)" stroke="rgb(186,155,201)" stroke-width="0" opacity="0.39215686274509803" d="M 385.5 552 L 396 554.5 L 392.5 555 L 385.5 553 L 385.5 552 Z " /><path fill="rgb(186,155,201)" stroke="rgb(186,155,201)" stroke-width="0" opacity="0.39215686274509803" d="M 468.5 554 L 471 554.5 L 468.5 555 L 468.5 554 Z " /><path fill="rgb(186,155,201)" stroke="rgb(186,155,201)" stroke-width="0" opacity="0.39215686274509803" d="M 397.5 555 L 406 556.5 L 401.5 557 L 397.5 556 L 397.5 555 Z " /><path fill="rgb(186,155,201)" stroke="rgb(186,155,201)" stroke-width="0" opacity="0.39215686274509803" d="M 464.5 555 L 467 555.5 L 464.5 556 L 464.5 555 Z " /><path fill="rgb(186,155,201)" stroke="rgb(186,155,201)" stroke-width="0" opacity="0.39215686274509803" d="M 459.5 556 L 463 556.5 L 459.5 557 L 459.5 556 Z " /><path fill="rgb(186,155,201)" stroke="rgb(186,155,201)" stroke-width="0" opacity="0.39215686274509803" d="M 407.5 557 L 413 557.5 L 407.5 558 L 407.5 557 Z " /><path fill="rgb(186,155,201)" stroke="rgb(186,155,201)" stroke-width="0" opacity="0.39215686274509803" d="M 453.5 557 L 458 557.5 L 453.5 558 L 453.5 557 Z " /><path fill="rgb(186,155,201)" stroke="rgb(186,155,201)" stroke-width="0" opacity="0.39215686274509803" d="M 414.5 558 L 424 558.5 L 414.5 559 L 414.5 558 Z " /><path fill="rgb(186,155,201)" stroke="rgb(186,155,201)" stroke-width="0" opacity="0.39215686274509803" d="M 442.5 558 L 451 558.5 L 442.5 559 L 442.5 558 Z " /><path fill="rgb(186,155,201)" stroke="rgb(186,155,201)" stroke-width="0" opacity="0.39215686274509803" d="M 430.5 559 L 436 559.5 L 430.5 560 L 430.5 559 Z " /><path fill="rgb(186,155,201)" stroke="rgb(186,155,201)" stroke-width="0" opacity="0.39215686274509803" d="M 386.5 568 L 389 568.5 L 386.5 569 L 386.5 568 Z " /><path fill="rgb(186,155,201)" stroke="rgb(186,155,201)" stroke-width="0" opacity="0.39215686274509803" d="M 390.5 569 L 404 571.5 L 399.5 572 L 390.5 570 L 390.5 569 Z " /><path fill="rgb(186,155,201)" stroke="rgb(186,155,201)" stroke-width="0" opacity="0.39215686274509803" d="M 462.5 571 L 466 571.5 L 462.5 572 L 462.5 571 Z " /><path fill="rgb(186,155,201)" stroke="rgb(186,155,201)" stroke-width="0" opacity="0.39215686274509803" d="M 405.5 572 L 411 572.5 L 405.5 573 L 405.5 572 Z " /><path fill="rgb(186,155,201)" stroke="rgb(186,155,201)" stroke-width="0" opacity="0.39215686274509803" d="M 455.5 572 L 461 572.5 L 455.5 573 L 455.5 572 Z " /><path fill="rgb(186,155,201)" stroke="rgb(186,155,201)" stroke-width="0" opacity="0.39215686274509803" d="M 413.5 573 L 421 573.5 L 413.5 574 L 413.5 573 Z " /><path fill="rgb(186,155,201)" stroke="rgb(186,155,201)" stroke-width="0" opacity="0.39215686274509803" d="M 446.5 573 L 454 573.5 L 446.5 574 L 446.5 573 Z " /><path fill="rgb(186,155,201)" stroke="rgb(186,155,201)" stroke-width="0" opacity="0.39215686274509803" d="M 425.5 574 L 442 574.5 L 425.5 575 L 425.5 574 Z " /><path fill="rgb(186,155,201)" stroke="rgb(186,155,201)" stroke-width="0" opacity="0.39215686274509803" d="M 525.5 581 L 527 581.5 L 523.5 583 L 523.5 582 L 525.5 581 Z " /><path fill="rgb(186,155,201)" stroke="rgb(186,155,201)" stroke-width="0" opacity="0.39215686274509803" d="M 520.5 583 L 522 583.5 L 501.5 590 L 501.5 589 L 520.5 583 Z " /><path fill="rgb(186,155,201)" stroke="rgb(186,155,201)" stroke-width="0" opacity="0.39215686274509803" d="M 401.5 584 L 403 584.5 L 399 587.5 L 398.5 589 L 398 587.5 L 401.5 584 Z " /><path fill="rgb(186,155,201)" stroke="rgb(186,155,201)" stroke-width="0" opacity="0.39215686274509803" d="M 407.5 584 L 421 588.5 L 418.5 589 L 407.5 585 L 407.5 584 Z " /><path fill="rgb(186,155,201)" stroke="rgb(186,155,201)" stroke-width="0" opacity="0.39215686274509803" d="M 422.5 589 L 433 591.5 L 429.5 592 L 422.5 590 L 422.5 589 Z " /><path fill="rgb(186,155,201)" stroke="rgb(186,155,201)" stroke-width="0" opacity="0.39215686274509803" d="M 496.5 590 L 500 590.5 L 492.5 592 L 492.5 591 L 496.5 590 Z " /><path fill="rgb(186,155,201)" stroke="rgb(186,155,201)" stroke-width="0" opacity="0.39215686274509803" d="M 540.5 591 L 542 591.5 L 524.5 599 L 524.5 598 L 540.5 591 Z " /><path fill="rgb(186,155,201)" stroke="rgb(186,155,201)" stroke-width="0" opacity="0.39215686274509803" d="M 434.5 592 L 438 592.5 L 434.5 593 L 434.5 592 Z " /><path fill="rgb(186,155,201)" stroke="rgb(186,155,201)" stroke-width="0" opacity="0.39215686274509803" d="M 486.5 592 L 491 592.5 L 486.5 593 L 486.5 592 Z " /><path fill="rgb(186,155,201)" stroke="rgb(186,155,201)" stroke-width="0" opacity="0.39215686274509803" d="M 439.5 593 L 445 593.5 L 439.5 594 L 439.5 593 Z " /><path fill="rgb(186,155,201)" stroke="rgb(186,155,201)" stroke-width="0" opacity="0.39215686274509803" d="M 479.5 593 L 485 593.5 L 479.5 594 L 479.5 593 Z " /><path fill="rgb(186,155,201)" stroke="rgb(186,155,201)" stroke-width="0" opacity="0.39215686274509803" d="M 398.5 594 L 401 597.5 L 398 595.5 L 398.5 594 Z " /><path fill="rgb(186,155,201)" stroke="rgb(186,155,201)" stroke-width="0" opacity="0.39215686274509803" d="M 447.5 594 L 477 594.5 L 447.5 595 L 447.5 594 Z " /><path fill="rgb(186,155,201)" stroke="rgb(186,155,201)" stroke-width="0" opacity="0.39215686274509803" d="M 402.5 598 L 406 599.5 L 404.5 600 L 402.5 598 Z " /><path fill="rgb(186,155,201)" stroke="rgb(186,155,201)" stroke-width="0" opacity="0.39215686274509803" d="M 521.5 599 L 523 599.5 L 515.5 602 L 515.5 601 L 521.5 599 Z " /><path fill="rgb(186,155,201)" stroke="rgb(186,155,201)" stroke-width="0" opacity="0.39215686274509803" d="M 407.5 600 L 418 603.5 L 415.5 604 L 407.5 601 L 407.5 600 Z " /><path fill="rgb(186,155,201)" stroke="rgb(186,155,201)" stroke-width="0" opacity="0.39215686274509803" d="M 511.5 602 L 514 602.5 L 508.5 604 L 508.5 603 L 511.5 602 Z " /><path fill="rgb(186,155,201)" stroke="rgb(186,155,201)" stroke-width="0" opacity="0.39215686274509803" d="M 419.5 604 L 426 605.5 L 422.5 606 L 419.5 605 L 419.5 604 Z " /><path fill="rgb(186,155,201)" stroke="rgb(186,155,201)" stroke-width="0" opacity="0.39215686274509803" d="M 504.5 604 L 507 604.5 L 504.5 605 L 504.5 604 Z " /><path fill="rgb(186,155,201)" stroke="rgb(186,155,201)" stroke-width="0" opacity="0.39215686274509803" d="M 500.5 605 L 503 605.5 L 500.5 606 L 500.5 605 Z " /><path fill="rgb(186,155,201)" stroke="rgb(186,155,201)" stroke-width="0" opacity="0.39215686274509803" d="M 427.5 606 L 436 607.5 L 431.5 608 L 427.5 607 L 427.5 606 Z " /><path fill="rgb(186,155,201)" stroke="rgb(186,155,201)" stroke-width="0" opacity="0.39215686274509803" d="M 495.5 606 L 499 606.5 L 495.5 607 L 495.5 606 Z " /><path fill="rgb(186,155,201)" stroke="rgb(186,155,201)" stroke-width="0" opacity="0.39215686274509803" d="M 489.5 607 L 494 607.5 L 489.5 608 L 489.5 607 Z " /><path fill="rgb(186,155,201)" stroke="rgb(186,155,201)" stroke-width="0" opacity="0.39215686274509803" d="M 437.5 608 L 443 608.5 L 437.5 609 L 437.5 608 Z " /><path fill="rgb(186,155,201)" stroke="rgb(186,155,201)" stroke-width="0" opacity="0.39215686274509803" d="M 481.5 608 L 488 608.5 L 481.5 609 L 481.5 608 Z " /><path fill="rgb(186,155,201)" stroke="rgb(186,155,201)" stroke-width="0" opacity="0.39215686274509803" d="M 445.5 609 L 457 609.5 L 445.5 610 L 445.5 609 Z " /><path fill="rgb(186,155,201)" stroke="rgb(186,155,201)" stroke-width="0" opacity="0.39215686274509803" d="M 468.5 609 L 480 609.5 L 468.5 610 L 468.5 609 Z " /><path fill="rgb(0,0,0)" stroke="rgb(0,0,0)" stroke-width="0" opacity="0" d="M 0 0 L 946 0 L 946 1000 L 0 1000 L 0 0 Z M 413 132 L 412 133 L 397 133 L 396 134 L 388 134 L 381 136 L 376 136 L 343 145 Q 306 159 280 182 Q 262 198 249 219 Q 236 239 228 264 L 218 300 L 213 325 L 213 330 L 206 366 L 205 382 L 204 383 L 204 397 L 203 398 L 204 420 L 207 435 Q 213 457 227 473 Q 244 491 265 506 Q 294 528 328 546 Q 351 559 379 567 L 400 572 L 413 573 L 414 574 L 425 574 L 426 575 L 442 575 L 443 574 L 461 573 L 487 566 Q 516 554 537 534 Q 567 503 585 460 L 596 428 L 605 393 L 610 367 L 611 353 L 612 352 L 612 339 L 613 338 L 612 309 L 609 292 Q 602 267 588 250 L 569 231 Q 551 218 530 210 L 486 197 L 465 193 L 451 192 L 450 191 L 440 191 L 439 190 L 406 190 L 405 191 L 389 192 L 371 196 Q 340 205 320 223 Q 291 248 275 287 Q 266 307 261 331 L 255 365 L 255 374 L 254 375 L 254 405 L 258 428 Q 265 453 282 470 L 308 490 L 351 512 L 395 529 L 414 534 L 432 536 L 433 537 L 465 537 L 484 533 Q 503 527 517 515 Q 542 494 556 461 L 568 424 L 571 407 L 571 398 L 572 397 L 572 367 L 571 366 L 570 351 L 566 334 Q 556 298 534 275 Q 518 257 498 244 Q 483 235 465 230 L 442 226 L 413 227 L 389 233 Q 362 243 344 260 Q 329 273 319 290 L 307 318 L 303 338 L 303 369 L 307 390 Q 317 422 337 444 Q 354 462 380 473 L 398 479 L 415 482 L 443 482 L 463 478 Q 485 471 502 457 Q 519 443 530 423 L 538 404 L 541 393 L 542 379 L 543 378 L 542 357 L 536 335 Q 530 318 519 306 Q 497 277 455 269 L 434 269 L 419 272 Q 397 278 382 291 Q 367 303 358 320 L 352 335 L 349 350 L 349 368 L 352 384 Q 358 405 371 420 Q 388 441 420 447 L 443 447 L 453 445 Q 470 440 482 429 Q 494 418 498 399 L 498 379 L 497 374 Q 493 359 485 350 Q 476 338 461 334 L 452 335 Q 448 338 449 346 L 453 349 Q 463 350 469 356 Q 479 365 482 381 L 482 397 L 476 411 Q 464 426 442 431 L 422 431 L 417 430 Q 401 426 391 416 L 376 399 L 368 381 L 365 366 L 365 351 L 367 341 Q 371 326 380 316 Q 399 291 436 285 L 453 285 L 467 288 Q 481 293 493 302 Q 505 312 514 327 L 524 350 L 527 367 L 526 385 L 520 406 Q 514 420 504 432 Q 483 459 442 466 L 416 466 L 401 463 Q 372 455 354 437 Q 338 423 329 403 L 321 379 L 319 368 L 319 356 L 318 355 L 320 333 L 325 315 Q 333 294 347 280 Q 359 266 376 257 L 402 246 L 422 242 L 443 242 L 471 249 Q 493 258 510 273 Q 532 293 545 323 L 553 349 L 555 360 L 555 368 L 556 369 L 556 396 L 555 397 L 555 405 L 548 436 Q 538 466 520 489 Q 509 502 494 511 L 474 519 L 464 521 L 455 521 L 454 522 L 433 521 L 426 519 L 421 519 L 405 515 L 376 505 L 323 480 Q 308 472 297 461 Q 286 451 279 438 L 274 425 L 270 404 L 270 377 L 271 376 L 271 367 L 276 338 L 283 312 Q 290 290 300 273 L 317 249 Q 334 229 360 217 L 386 209 L 397 207 L 405 207 L 406 206 L 438 206 L 439 207 L 449 207 L 492 215 L 531 228 Q 549 236 564 248 Q 580 261 589 283 L 594 299 L 596 310 L 596 321 L 597 322 L 597 336 L 596 337 L 595 358 L 587 399 L 580 425 L 570 454 L 557 481 L 537 510 Q 520 529 498 543 L 472 554 L 453 558 L 443 558 L 442 559 L 425 559 L 424 558 L 414 558 L 397 555 Q 374 550 355 541 Q 300 515 257 479 Q 240 466 229 447 L 222 429 L 220 419 L 220 407 L 219 406 L 221 375 L 222 374 L 222 368 L 227 343 L 227 338 L 240 280 Q 253 235 280 205 Q 304 179 339 164 L 378 152 L 396 150 L 397 149 L 410 149 L 411 148 L 443 149 L 444 150 L 464 152 L 490 158 L 520 168 Q 580 191 626 229 Q 649 248 664 277 L 673 302 L 676 318 L 676 330 L 677 331 L 676 356 L 675 357 L 675 364 L 672 381 L 666 404 L 653 440 Q 631 492 596 532 Q 574 555 546 572 Q 529 582 508 588 L 479 594 L 446 594 L 422 589 L 410 584 L 402 584 L 398 588 L 397 592 L 398 596 Q 405 602 416 604 L 446 610 L 480 610 L 481 609 L 499 607 L 521 601 Q 563 586 593 558 Q 636 518 662 460 Q 674 433 683 404 L 691 366 L 692 344 L 693 343 L 691 310 L 688 295 L 683 280 Q 670 250 649 229 Q 627 207 600 190 Q 569 171 534 156 L 500 144 L 466 136 L 454 135 L 453 134 L 444 134 L 443 133 L 413 132 Z M 220 658 L 216 662 L 216 672 L 215 673 L 215 681 L 214 682 L 212 700 L 200 755 L 186 690 L 179 668 L 175 661 L 172 661 L 168 663 L 167 670 L 167 714 L 168 715 L 168 777 L 167 778 L 167 799 L 169 804 Q 170 807 176 806 L 178 803 L 178 757 L 177 756 L 178 699 L 190 749 L 191 774 L 193 783 L 198 786 L 202 785 L 206 776 L 208 758 L 218 718 L 218 733 L 219 734 L 219 807 L 222 811 L 228 810 L 231 804 L 230 739 L 229 738 L 229 711 L 228 710 L 228 663 L 227 660 Q 226 656 220 658 Z M 544 658 L 540 662 L 540 670 L 539 671 L 539 679 L 538 680 L 536 699 L 524 755 L 522 753 L 517 722 L 509 687 L 504 671 L 498 661 Q 493 661 491 665 L 491 735 L 492 736 L 492 773 L 491 774 L 491 800 L 492 803 Q 494 807 500 806 L 502 802 L 502 764 L 501 763 L 501 728 L 500 727 L 502 699 L 514 750 L 516 781 L 521 786 L 526 785 L 530 775 L 532 757 L 542 717 L 542 756 L 543 757 L 543 808 L 544 810 Q 545 812 550 811 Q 554 808 555 803 L 551 661 Q 550 657 544 658 Z M 594 678 L 591 684 L 589 710 L 583 741 L 583 746 L 570 801 L 570 805 Q 572 808 579 807 L 581 805 L 583 799 Q 583 785 588 775 L 605 778 L 607 784 L 608 804 L 609 806 L 613 808 Q 619 809 620 806 L 620 799 L 614 768 L 614 752 L 613 751 L 613 742 L 612 741 L 610 719 L 609 718 L 608 701 L 607 700 L 607 683 L 606 681 L 604 678 L 594 678 Z M 262 679 L 252 682 Q 247 683 248 689 Q 250 693 257 691 L 258 694 L 258 715 L 257 716 L 259 770 L 260 771 L 260 782 L 261 783 L 261 794 L 260 795 L 260 796 L 251 796 Q 247 797 248 802 L 252 805 L 256 806 L 278 806 L 283 803 L 282 798 L 280 795 L 275 794 L 271 795 L 271 777 L 270 776 L 270 765 L 269 764 L 269 752 L 268 751 L 268 735 L 267 734 L 266 692 L 269 689 Q 275 690 277 688 L 278 685 L 277 682 L 275 679 L 262 679 Z M 309 679 L 306 680 L 302 688 L 302 704 L 301 705 L 301 800 L 305 806 Q 310 807 312 805 L 313 803 Q 314 797 311 796 L 312 701 L 333 757 L 344 791 Q 344 800 347 806 L 350 807 L 358 806 L 360 801 L 361 785 L 362 784 L 363 750 L 364 749 L 364 724 L 365 723 L 365 686 L 363 681 L 360 680 L 357 681 L 355 683 L 354 754 L 353 755 L 352 784 L 351 787 L 327 708 L 315 683 L 313 680 L 309 679 Z M 653 679 Q 651 681 647 680 L 642 684 L 643 689 L 646 690 L 662 689 L 655 717 L 643 754 L 637 778 L 635 796 L 634 797 Q 632 805 638 807 L 645 805 L 662 805 Q 665 804 664 799 L 661 796 L 650 796 L 649 797 L 645 796 L 660 739 L 664 715 L 671 696 L 673 686 L 672 682 L 668 679 L 653 679 Z M 394 680 L 390 685 L 391 706 L 392 707 L 392 798 L 394 806 L 397 808 L 411 808 L 419 803 Q 426 797 431 788 L 435 774 L 435 764 L 436 763 L 436 723 L 432 708 L 423 693 Q 417 685 408 681 Q 402 679 394 680 Z M 699 680 L 694 687 L 694 704 L 695 705 L 695 727 L 694 728 L 694 792 L 695 793 L 695 806 L 700 809 L 721 809 L 724 808 Q 727 807 726 802 L 724 799 L 704 799 L 705 739 L 718 739 L 720 738 L 721 736 L 720 732 L 716 729 L 706 729 L 704 728 L 705 691 L 710 691 L 718 694 L 721 694 L 724 692 L 725 690 L 724 685 L 710 680 L 699 680 Z " /><path fill="rgb(0,0,0)" stroke="rgb(0,0,0)" stroke-width="0" opacity="0" d="M 404.5 689 L 409.5 690 L 414 693 L 419 700.5 L 424 716.5 L 425 730.5 L 426 731.5 L 426 761.5 L 421 784.5 Q 418.4 791.9 412.5 796 L 405 798 L 405 764.5 L 404 763.5 L 402 701.5 L 403 700.5 L 403 690.5 L 404.5 689 Z " /><path fill="rgb(0,0,0)" stroke="rgb(0,0,0)" stroke-width="0" opacity="0" d="M 598.5 703 L 600 709.5 L 601 727.5 L 602 728.5 L 602 738.5 L 603 739.5 L 604 771 L 591.5 770 L 587 767.5 L 598.5 703 Z " /></svg>